<svg width="512" height="512" viewBox="0 0 512 512" fill="none" xmlns="http://www.w3.org/2000/svg">
<path d="M457 271C457 381 367 471 257 471C147 471 57 381 57 271C57 161 147 71 257 71C367 71 457 161 457 271Z" fill="#4353FF"/>
<path d="M317.999 245.3C317.999 245.3 300.699 299.5 299.399 304.1C298.899 299.5 286.299 202.1 286.299 202.1C256.799 202.1 241.099 223 232.799 245.3C232.799 245.3 211.799 299.7 210.099 304.3C209.999 300 206.899 245.9 206.899 245.9C205.099 218.7 180.299 202.2 160.199 202.2L184.399 349.8C215.299 349.7 231.899 328.8 240.599 306.6C240.599 306.6 259.099 258.6 259.899 256.4C260.099 258.5 273.199 349.8 273.199 349.8C304.099 349.8 320.799 330.2 329.799 308.8L372.999 202.1C342.399 202.1 326.299 223 317.999 245.3Z" fill="white"/>
</svg>
