<svg id="svg" xmlns="http://www.w3.org/2000/svg" xmlns:xlink="http://www.w3.org/1999/xlink"
    width="400" height="372.38169123351435" viewBox="0, 0, 400,372.38169123351435" version="1.1">
    <defs>
        <clipPath id="astro-clip">
            <rect width="400" height="372.38169123351435"></rect>
        </clipPath>
    </defs>
    <g clip-path="url(#astro-clip)">
        <path fill="none" fill-rule="evenodd" stroke="#69c27f" stroke-linecap="square"
            stroke-linejoin="miter"
            stroke-miterlimit="1" stroke-width="0.1"
            d="M 194.222 100.063 C 194.144 100.141,192.341 100.230,190.214 100.262 C 186.089 100.323,180.710 101.670,179.209 103.017 C 178.867 103.323,178.099 103.820,177.502 104.122 C 176.905 104.423,175.369 105.510,174.088 106.537 C 165.812 113.177,163.493 117.233,162.603 126.633 C 161.933 133.709,164.242 141.911,168.110 146.190 L 168.838 146.996 167.468 148.118 C 165.324 149.875,160.915 156.313,158.718 160.896 C 157.653 163.117,155.092 168.399,153.027 172.633 C 149.498 179.869,149.004 181.128,144.803 193.583 L 140.334 206.835 139.989 213.348 C 139.799 216.930,139.499 223.523,139.323 228.000 L 139.002 236.140 141.521 239.900 L 144.040 243.659 145.177 243.459 C 147.093 243.121,148.340 241.165,147.072 240.486 C 146.204 240.022,146.456 239.481,147.735 239.061 C 148.907 238.676,149.356 237.525,148.562 236.944 C 147.538 236.195,147.744 230.603,148.887 228.125 L 149.368 227.080 149.792 228.736 C 150.793 232.646,152.485 233.454,155.250 231.343 C 157.077 229.948,157.106 230.243,154.639 225.105 C 153.500 222.733,152.327 219.953,152.034 218.929 L 151.501 217.067 153.142 215.361 C 154.544 213.903,155.990 211.345,163.058 197.828 C 167.609 189.123,171.667 181.661,172.077 181.245 C 172.943 180.367,173.011 180.472,173.310 183.146 C 173.489 184.741,173.611 184.973,174.576 185.542 L 175.644 186.172 175.628 193.747 L 175.613 201.322 174.609 202.990 L 173.604 204.659 173.899 207.510 C 174.216 210.570,174.217 210.561,172.072 217.688 C 168.969 227.999,168.682 229.575,167.374 243.445 C 167.294 244.298,166.960 247.719,166.632 251.047 C 165.967 257.807,165.936 259.706,166.295 271.683 C 166.615 282.355,167.234 285.851,169.151 287.832 C 170.679 289.410,170.898 288.571,167.068 295.834 L 163.772 302.086 164.439 305.187 C 165.224 308.835,164.796 308.351,168.690 309.990 L 171.825 311.309 174.896 310.486 C 176.585 310.033,178.203 309.594,178.490 309.510 C 178.778 309.427,179.585 308.317,180.283 307.045 C 181.382 305.042,181.822 304.561,183.561 303.463 C 184.666 302.765,185.570 302.171,185.570 302.142 C 185.570 302.113,186.338 299.940,187.277 297.313 C 188.566 293.705,188.984 292.115,188.984 290.816 C 188.984 289.420,189.126 288.945,189.736 288.302 C 190.973 286.998,191.670 279.587,192.232 261.753 L 192.701 246.858 195.471 236.709 C 197.667 228.661,198.423 226.320,199.121 225.403 L 200.000 224.248 200.191 226.398 C 200.554 230.485,200.482 237.575,200.005 244.794 L 199.525 252.039 201.079 260.309 C 202.931 270.175,205.601 279.794,208.956 288.695 L 211.275 294.845 210.512 297.074 C 209.082 301.254,208.277 304.574,207.605 309.073 L 206.933 313.569 208.587 315.051 L 210.240 316.532 215.516 316.349 C 222.448 316.107,228.492 314.382,228.177 312.733 C 228.018 311.905,228.429 308.800,229.133 305.508 C 229.388 304.313,229.886 301.050,230.239 298.256 L 230.881 293.176 232.126 291.689 L 233.371 290.203 232.408 274.436 C 231.476 259.196,231.419 258.628,230.695 257.392 C 229.947 256.115,229.946 256.097,229.982 247.141 C 230.001 242.207,230.084 238.427,230.165 238.741 C 230.287 239.215,230.508 239.280,231.448 239.116 C 232.567 238.921,233.230 238.368,235.003 236.151 L 235.871 235.066 235.708 237.859 C 235.618 239.395,235.463 242.274,235.363 244.258 L 235.181 247.863 237.211 249.145 C 238.327 249.850,239.375 250.427,239.540 250.427 C 239.875 250.427,249.750 246.552,249.967 246.335 C 250.043 246.259,250.950 241.109,251.983 234.891 L 253.861 223.584 253.843 209.234 C 253.824 193.388,253.300 187.106,251.471 180.807 C 251.032 179.297,250.639 177.901,250.597 177.704 C 250.555 177.508,250.437 177.137,250.334 176.881 C 250.231 176.625,249.774 175.163,249.317 173.633 C 248.515 170.949,246.950 167.926,240.553 156.711 C 235.385 147.650,230.287 143.687,223.786 143.678 C 223.147 143.677,219.395 141.633,219.395 141.285 C 219.395 141.213,219.870 140.125,220.452 138.867 C 226.331 126.142,220.212 110.149,206.820 103.239 C 201.836 100.668,195.272 99.013,194.222 100.063 M198.319 101.319 C 198.675 102.824,198.906 105.538,198.668 105.415 C 198.547 105.353,196.319 104.350,193.716 103.186 C 191.113 102.022,188.984 100.955,188.984 100.816 C 188.984 100.618,195.172 100.304,197.653 100.376 C 197.898 100.383,198.198 100.808,198.319 101.319 M192.774 103.400 C 197.903 105.730,198.305 105.968,197.484 106.201 C 196.990 106.341,194.728 106.934,192.456 107.519 L 188.326 108.582 184.613 105.747 L 180.900 102.912 182.692 102.173 C 183.678 101.766,185.043 101.318,185.725 101.177 C 186.408 101.037,187.011 100.906,187.066 100.887 C 187.121 100.869,189.689 101.999,192.774 103.400 M201.427 101.619 C 206.055 103.289,206.351 103.533,207.957 107.009 L 209.397 110.127 207.899 109.537 C 204.358 108.141,199.522 106.049,199.410 105.864 C 199.160 105.451,198.850 100.853,199.073 100.853 C 199.200 100.853,200.259 101.198,201.427 101.619 M183.739 106.026 C 185.599 107.505,187.069 108.768,187.005 108.832 C 186.788 109.048,176.431 111.678,176.302 111.549 C 176.103 111.350,179.796 103.359,180.093 103.347 C 180.238 103.341,181.879 104.546,183.739 106.026 M177.091 108.068 L 175.156 112.180 171.286 113.477 C 169.158 114.191,167.312 114.784,167.184 114.796 C 165.279 114.972,176.789 104.392,178.962 103.969 C 178.997 103.962,178.155 105.807,177.091 108.068 M211.281 106.954 C 215.230 109.920,215.236 109.950,211.861 110.225 L 210.069 110.370 209.422 108.948 C 209.067 108.165,208.444 106.792,208.038 105.896 C 207.088 103.797,207.072 103.792,211.281 106.954 M197.330 109.310 C 196.472 110.888,195.615 112.548,195.425 112.999 L 195.080 113.817 192.003 111.465 C 189.138 109.275,188.976 109.093,189.653 108.836 C 190.515 108.510,197.971 106.520,198.514 106.472 C 198.720 106.454,198.188 107.731,197.330 109.310 M209.097 110.632 C 209.216 110.739,203.177 115.735,202.919 115.743 C 202.818 115.746,202.140 113.906,201.412 111.653 C 200.684 109.401,200.021 107.380,199.937 107.163 C 199.823 106.865,208.604 110.191,209.097 110.632 M199.709 108.030 C 199.789 108.435,200.398 110.372,201.061 112.335 C 202.504 116.607,202.726 116.286,199.018 115.283 C 195.150 114.236,195.222 114.339,196.598 111.822 C 199.472 106.565,199.427 106.619,199.709 108.030 M190.531 111.492 C 193.432 113.850,193.805 113.771,184.019 112.870 L 176.416 112.170 178.588 111.623 C 179.783 111.321,182.227 110.676,184.019 110.190 C 187.887 109.139,187.553 109.072,190.531 111.492 M215.361 110.600 C 215.361 110.670,215.984 112.723,216.747 115.162 C 218.391 120.426,218.409 120.354,216.100 117.729 C 215.096 116.587,214.135 115.499,213.964 115.310 C 213.794 115.121,212.846 114.034,211.860 112.893 L 210.065 110.820 211.394 110.701 C 213.527 110.509,215.361 110.463,215.361 110.600 M211.008 115.872 C 211.708 118.409,212.240 120.519,212.191 120.563 C 212.023 120.711,203.271 116.835,203.265 116.609 C 203.258 116.389,209.551 111.077,209.673 111.199 C 209.707 111.233,210.308 113.336,211.008 115.872 M217.950 114.119 C 219.462 116.704,221.027 120.041,221.363 121.394 C 221.568 122.220,221.560 122.225,220.715 121.784 C 220.245 121.539,219.721 121.336,219.550 121.333 C 219.379 121.330,218.626 119.339,217.877 116.909 C 217.127 114.479,216.449 112.316,216.369 112.102 C 215.982 111.059,216.684 111.956,217.950 114.119 M185.105 113.588 C 195.161 114.478,194.613 114.138,191.110 117.315 C 189.514 118.763,187.983 120.121,187.707 120.333 C 187.281 120.662,186.376 120.133,181.656 116.798 C 175.172 112.218,175.547 112.526,176.726 112.750 C 177.238 112.848,181.009 113.225,185.105 113.588 M213.977 116.214 C 215.484 117.921,217.000 119.638,217.347 120.029 L 217.977 120.741 215.382 120.650 L 212.787 120.559 211.759 116.835 C 210.647 112.807,210.559 112.358,210.972 112.816 C 211.118 112.978,212.471 114.507,213.977 116.214 M172.808 117.324 C 171.765 119.615,170.872 121.533,170.825 121.586 C 170.778 121.639,169.618 120.385,168.246 118.799 C 166.874 117.212,165.794 115.872,165.845 115.820 C 165.987 115.679,174.542 113.028,174.630 113.099 C 174.671 113.132,173.852 115.034,172.808 117.324 M181.150 117.145 C 185.154 119.986,186.414 121.025,185.860 121.029 C 185.445 121.032,183.499 121.169,181.536 121.333 C 174.618 121.913,171.510 122.050,171.659 121.769 C 171.741 121.615,172.629 119.639,173.633 117.378 C 174.637 115.116,175.510 113.266,175.572 113.266 C 175.634 113.266,178.144 115.012,181.150 117.145 M198.535 115.829 L 201.725 116.835 198.302 118.642 L 194.880 120.448 194.880 117.633 C 194.880 116.085,194.984 114.819,195.112 114.821 C 195.240 114.822,196.781 115.276,198.535 115.829 M194.416 118.214 L 194.193 121.024 191.201 121.012 L 188.208 120.999 191.311 118.091 C 194.946 114.683,194.696 114.674,194.416 118.214 M168.110 119.569 L 170.601 122.459 166.851 127.471 C 164.789 130.228,163.041 132.423,162.968 132.350 C 161.988 131.370,164.398 116.680,165.539 116.680 C 165.583 116.680,166.740 117.980,168.110 119.569 M203.047 118.929 C 203.149 119.825,203.328 121.652,203.445 122.988 L 203.659 125.418 199.502 123.341 C 197.216 122.199,195.310 121.233,195.268 121.196 C 195.137 121.081,202.148 117.327,202.517 117.313 C 202.707 117.306,202.946 118.033,203.047 118.929 M211.864 121.163 C 211.904 121.194,210.298 122.136,208.296 123.256 C 206.293 124.375,204.612 125.254,204.559 125.208 C 204.507 125.163,204.265 123.749,204.022 122.066 C 203.779 120.384,203.514 118.639,203.434 118.190 L 203.288 117.373 207.540 119.239 C 209.879 120.265,211.825 121.131,211.864 121.163 M187.122 121.438 C 187.122 121.494,185.154 123.194,182.749 125.215 L 178.377 128.889 175.324 125.813 C 173.646 124.121,172.329 122.680,172.399 122.610 C 172.616 122.393,187.122 121.238,187.122 121.438 M194.569 124.438 C 194.569 126.144,194.515 127.541,194.448 127.541 C 194.382 127.541,193.040 126.144,191.466 124.438 L 188.605 121.334 191.587 121.334 L 194.569 121.334 194.569 124.438 M218.154 121.479 C 218.154 121.559,217.948 122.082,217.696 122.643 C 217.444 123.203,216.802 124.823,216.269 126.243 C 215.736 127.663,215.246 128.771,215.181 128.706 C 215.116 128.640,214.637 127.200,214.118 125.504 C 213.598 123.808,213.097 122.176,213.005 121.877 C 212.853 121.389,213.106 121.334,215.495 121.334 C 216.957 121.334,218.154 121.399,218.154 121.479 M188.637 122.222 C 188.913 122.539,190.300 124.067,191.719 125.617 C 193.138 127.167,194.325 128.521,194.357 128.627 C 194.388 128.732,193.367 129.385,192.087 130.079 C 190.807 130.773,188.520 132.022,187.004 132.854 C 184.272 134.355,183.708 134.576,183.708 134.144 C 183.708 134.021,184.555 131.333,185.589 128.170 C 186.623 125.008,187.527 122.246,187.596 122.033 C 187.772 121.496,188.050 121.547,188.637 122.222 M200.071 126.828 C 198.325 127.384,196.443 127.927,195.888 128.035 L 194.880 128.230 194.880 124.939 L 194.880 121.648 199.062 123.732 L 203.245 125.817 200.071 126.828 M213.445 125.204 C 213.969 126.906,214.347 128.347,214.287 128.408 C 214.157 128.537,205.762 126.339,205.208 126.031 C 204.984 125.906,206.316 124.987,208.466 123.781 C 210.466 122.659,212.190 121.824,212.298 121.926 C 212.406 122.027,212.922 123.502,213.445 125.204 M220.194 122.144 C 222.134 122.631,222.974 129.983,221.560 134.104 L 221.172 135.237 218.479 132.109 L 215.786 128.982 217.202 125.310 C 218.199 122.728,218.743 121.686,219.036 121.798 C 219.265 121.886,219.786 122.041,220.194 122.144 M177.494 134.731 C 177.148 137.689,176.834 140.197,176.796 140.305 C 176.758 140.412,175.487 139.347,173.973 137.938 L 171.221 135.375 171.450 129.112 L 171.679 122.849 174.901 126.101 L 178.122 129.354 177.494 134.731 M184.995 128.320 L 183.263 133.753 180.992 131.500 L 178.721 129.247 179.430 128.684 C 180.328 127.971,182.102 126.496,184.484 124.483 C 185.508 123.618,186.432 122.905,186.536 122.898 C 186.641 122.891,185.947 125.331,184.995 128.320 M170.810 129.170 C 170.691 132.455,170.561 135.183,170.521 135.231 C 170.482 135.278,168.831 134.874,166.854 134.331 L 163.259 133.344 164.409 131.761 C 166.918 128.307,170.796 123.196,170.908 123.196 C 170.974 123.196,170.930 125.884,170.810 129.170 M203.434 134.202 C 203.167 137.527,202.946 140.705,202.943 141.264 C 202.937 142.261,200.893 139.346,199.086 135.764 C 198.827 135.252,198.479 134.624,198.312 134.368 C 197.389 132.957,195.500 129.613,195.500 129.390 C 195.500 129.157,197.489 128.487,202.172 127.140 C 204.130 126.577,204.073 126.255,203.434 134.202 M210.396 128.031 C 212.700 128.654,214.623 129.197,214.670 129.238 C 214.811 129.363,210.391 136.688,210.117 136.784 C 209.976 136.833,209.548 136.144,209.165 135.254 C 208.781 134.363,207.842 132.368,207.077 130.820 C 205.095 126.810,204.999 126.531,205.663 126.733 C 205.962 126.824,208.092 127.408,210.396 128.031 M208.337 134.806 C 209.140 136.499,209.688 137.985,209.553 138.109 C 209.017 138.605,203.455 142.426,203.379 142.350 C 203.319 142.290,203.931 133.812,204.493 126.920 C 204.505 126.771,205.128 128.050,208.337 134.806 M194.804 141.269 L 194.725 143.050 189.663 138.986 C 186.879 136.751,184.657 134.867,184.725 134.799 C 184.793 134.731,187.001 133.514,189.631 132.094 L 194.414 129.513 194.648 134.500 C 194.777 137.244,194.847 140.289,194.804 141.269 M183.088 134.541 C 183.088 134.856,181.634 136.221,178.427 138.920 L 177.400 139.784 177.592 138.084 C 177.697 137.150,177.949 134.883,178.151 133.047 L 178.518 129.708 180.803 131.948 C 182.060 133.179,183.088 134.346,183.088 134.541 M220.064 134.768 L 221.208 135.943 220.000 138.491 C 219.335 139.893,218.787 140.806,218.783 140.521 C 218.776 140.111,217.422 135.533,215.799 130.433 C 215.700 130.122,216.362 130.706,217.270 131.730 C 218.178 132.754,219.435 134.121,220.064 134.768 M202.948 142.795 C 203.635 142.871,199.046 143.279,196.974 143.326 L 195.190 143.367 195.190 136.779 L 195.190 130.192 198.836 136.468 C 200.842 139.919,202.692 142.767,202.948 142.795 M216.264 133.670 C 218.396 140.740,218.448 140.944,218.062 140.800 C 217.856 140.723,216.222 140.128,214.430 139.478 C 209.999 137.871,210.117 138.237,212.656 133.980 C 215.285 129.573,215.034 129.594,216.264 133.670 M166.657 134.827 C 168.099 135.250,169.542 135.599,169.865 135.602 C 170.383 135.608,170.429 135.780,170.265 137.083 C 169.744 141.216,169.408 143.646,169.199 144.808 L 168.968 146.094 166.330 140.355 C 164.880 137.199,163.646 134.490,163.589 134.337 C 163.437 133.926,163.768 133.979,166.657 134.827 M185.731 136.564 C 186.581 137.260,187.557 138.063,187.900 138.348 C 188.242 138.634,189.819 139.897,191.404 141.155 C 192.989 142.414,194.245 143.481,194.195 143.527 C 194.145 143.574,192.289 143.837,190.070 144.112 C 187.851 144.387,185.512 144.694,184.872 144.793 L 183.708 144.973 183.708 140.136 C 183.708 134.703,183.629 134.843,185.731 136.564 M183.398 140.099 C 183.398 144.589,183.151 145.359,182.157 143.972 C 182.071 143.852,181.513 143.489,180.915 143.164 C 180.318 142.840,179.251 142.185,178.544 141.710 L 177.259 140.846 178.699 139.532 C 180.700 137.707,183.153 135.609,183.287 135.609 C 183.348 135.609,183.398 137.629,183.398 140.099 M175.544 143.685 L 174.612 146.127 172.876 146.318 C 171.921 146.423,170.742 146.584,170.255 146.676 C 169.421 146.834,169.381 146.793,169.551 145.959 C 169.650 145.472,169.951 143.328,170.220 141.195 C 170.979 135.172,170.635 135.428,173.772 138.551 L 176.476 141.243 175.544 143.685 M166.940 142.979 C 167.283 143.704,167.509 144.298,167.443 144.298 C 167.205 144.298,165.975 142.003,165.229 140.167 C 163.814 136.685,164.491 137.797,166.940 142.979 M210.709 140.031 C 210.895 140.756,211.100 141.509,211.164 141.704 C 211.240 141.933,210.551 142.129,209.209 142.260 C 208.070 142.371,206.509 142.541,205.741 142.637 L 204.344 142.812 206.362 141.337 C 207.471 140.526,208.728 139.608,209.154 139.297 C 210.241 138.506,210.330 138.548,210.709 140.031 M214.352 140.029 C 217.186 141.027,217.885 141.503,216.524 141.507 C 216.140 141.508,214.903 141.597,213.775 141.703 L 211.725 141.897 211.511 141.003 C 211.393 140.511,211.225 139.864,211.136 139.566 C 210.921 138.843,211.026 138.859,214.352 140.029 M180.518 143.828 L 182.447 145.116 178.987 145.478 C 174.859 145.909,175.158 146.110,176.163 143.578 L 176.987 141.503 177.787 142.021 C 178.228 142.306,179.456 143.119,180.518 143.828 M217.026 143.134 C 216.335 143.860,215.433 144.815,215.022 145.258 C 214.611 145.700,213.830 146.367,213.286 146.738 L 212.298 147.415 212.109 145.934 C 212.005 145.119,211.852 144.010,211.769 143.468 L 211.618 142.483 213.412 142.285 C 214.398 142.176,215.415 142.042,215.671 141.987 C 215.927 141.932,216.619 141.871,217.210 141.851 L 218.283 141.815 217.026 143.134 M222.188 143.724 C 222.444 143.855,223.658 144.119,224.886 144.311 L 227.118 144.658 226.804 145.487 C 226.536 146.193,223.131 155.101,222.124 157.729 C 221.943 158.204,221.733 158.532,221.659 158.457 C 221.431 158.229,220.308 153.501,220.285 152.676 C 220.251 151.397,219.713 144.864,219.522 143.404 L 219.345 142.044 220.533 142.765 C 221.187 143.162,221.932 143.593,222.188 143.724 M211.493 144.777 C 211.767 147.700,212.092 147.639,207.999 145.434 C 203.949 143.253,203.954 143.334,207.853 142.873 C 209.507 142.677,210.954 142.499,211.067 142.477 C 211.181 142.454,211.372 143.490,211.493 144.777 M219.276 146.817 C 219.409 148.589,219.525 150.430,219.534 150.909 C 219.548 151.669,208.546 157.136,208.033 156.624 C 207.960 156.551,209.131 154.972,215.975 145.920 C 219.002 141.916,218.906 141.890,219.276 146.817 M199.807 147.013 C 198.583 148.848,197.547 150.393,197.504 150.447 C 197.461 150.501,196.989 149.189,196.455 147.532 C 195.922 145.876,195.533 144.472,195.591 144.414 C 195.728 144.277,199.690 143.768,201.015 143.717 L 202.031 143.677 199.807 147.013 M204.595 147.297 C 205.415 149.281,205.974 151.009,205.836 151.137 C 205.698 151.266,204.838 151.688,203.924 152.076 L 202.262 152.781 199.968 152.031 L 197.674 151.280 200.202 147.479 C 201.592 145.388,202.813 143.680,202.916 143.684 C 203.019 143.688,203.774 145.313,204.595 147.297 M210.498 147.427 L 211.376 147.952 210.717 148.565 C 209.685 149.527,206.954 150.912,206.674 150.616 C 206.535 150.469,205.794 148.851,205.027 147.020 L 203.633 143.690 206.626 145.296 C 208.273 146.179,210.015 147.138,210.498 147.427 M195.738 147.013 C 197.027 150.753,197.158 151.226,196.852 151.047 C 196.706 150.962,195.050 150.170,193.173 149.288 C 186.808 146.298,185.618 145.699,185.761 145.556 C 185.839 145.477,187.818 145.179,190.159 144.893 C 192.499 144.606,194.502 144.355,194.608 144.335 C 194.715 144.315,195.223 145.520,195.738 147.013 M231.754 146.830 C 236.561 150.689,236.763 151.148,234.504 153.078 L 232.855 154.487 230.469 149.878 C 227.363 143.876,227.543 143.449,231.754 146.830 M184.071 147.712 C 184.127 148.907,184.139 149.885,184.096 149.884 C 184.053 149.884,182.393 149.127,180.407 148.202 L 176.796 146.521 178.157 146.323 C 178.906 146.215,180.427 146.012,181.536 145.872 C 182.645 145.732,183.646 145.600,183.760 145.579 C 183.874 145.557,184.014 146.517,184.071 147.712 M232.111 154.304 C 232.115 154.431,230.617 155.251,228.782 156.126 C 223.121 158.827,222.100 159.248,222.267 158.818 C 222.352 158.598,223.501 155.625,224.819 152.211 C 226.137 148.798,227.290 145.883,227.381 145.734 C 227.531 145.489,232.096 153.759,232.111 154.304 M188.329 147.584 C 190.311 148.538,193.014 149.814,194.337 150.420 C 197.176 151.721,197.166 151.691,195.226 153.116 C 193.351 154.492,193.982 154.575,189.009 152.305 C 186.691 151.247,184.775 150.374,184.752 150.365 C 184.570 150.296,184.318 145.849,184.496 145.849 C 184.623 145.849,186.348 146.630,188.329 147.584 M211.002 151.501 C 208.768 154.438,206.819 157.057,206.672 157.319 C 206.468 157.685,205.872 157.791,204.133 157.774 C 202.884 157.762,196.503 157.717,189.954 157.675 L 178.047 157.599 177.370 156.767 C 176.998 156.309,175.570 154.466,174.195 152.670 L 171.697 149.405 173.281 150.189 C 180.343 153.686,182.914 154.524,188.053 155.000 C 189.162 155.103,190.711 155.258,191.495 155.343 C 196.856 155.929,206.274 152.654,212.413 148.071 C 213.778 147.051,214.933 146.204,214.980 146.188 C 215.027 146.173,213.237 148.563,211.002 151.501 M176.251 149.094 C 177.110 150.366,177.812 151.474,177.812 151.556 C 177.812 151.884,172.904 149.425,171.455 148.371 L 169.907 147.246 171.299 147.060 C 174.669 146.609,174.539 146.556,176.251 149.094 M184.696 150.908 C 189.249 152.990,192.844 154.741,192.682 154.798 C 191.294 155.295,181.552 153.585,179.786 152.535 C 178.676 151.875,174.938 146.566,175.816 146.897 C 176.146 147.021,180.142 148.826,184.696 150.908 M169.123 150.904 L 169.123 154.096 165.790 154.915 C 163.957 155.365,162.420 155.697,162.375 155.652 C 161.991 155.267,168.266 147.711,168.969 147.711 C 169.054 147.711,169.123 149.148,169.123 150.904 M173.776 153.257 L 177.552 158.338 176.842 160.913 L 176.131 163.489 175.614 162.639 C 175.330 162.171,173.823 160.017,172.266 157.851 L 169.434 153.913 169.434 150.750 C 169.434 148.834,169.545 147.703,169.717 147.882 C 169.873 148.044,171.700 150.463,173.776 153.257 M239.733 156.420 L 241.427 159.388 241.407 165.574 L 241.386 171.761 238.891 166.641 C 232.481 153.491,232.938 155.060,234.982 153.229 L 236.618 151.764 237.329 152.608 C 237.720 153.072,238.802 154.788,239.733 156.420 M200.000 152.663 C 201.775 153.302,201.860 153.256,197.391 154.069 C 194.224 154.646,194.153 154.600,196.031 153.190 C 197.724 151.920,197.880 151.899,200.000 152.663 M219.085 152.784 C 219.085 152.843,218.788 153.227,218.426 153.638 C 218.064 154.048,217.035 155.291,216.140 156.400 C 213.036 160.247,212.235 160.946,209.963 161.792 C 207.389 162.750,207.422 162.766,207.213 160.521 C 207.120 159.535,206.996 158.539,206.936 158.309 C 206.863 158.026,208.754 157.047,212.723 155.312 C 218.448 152.810,219.085 152.557,219.085 152.784 M220.415 156.308 L 221.157 159.454 218.491 159.822 C 217.026 160.025,215.234 160.297,214.511 160.427 L 213.196 160.663 213.735 159.963 C 215.009 158.310,219.521 153.010,219.594 153.082 C 219.637 153.126,220.007 154.577,220.415 156.308 M167.196 156.168 C 166.606 156.893,165.438 158.337,164.598 159.376 C 161.065 163.750,154.721 171.486,154.315 171.916 C 153.816 172.444,154.859 170.130,158.678 162.232 L 161.336 156.737 162.980 156.271 C 164.265 155.907,167.431 155.054,168.152 154.877 C 168.215 154.861,167.785 155.442,167.196 156.168 M170.089 161.320 C 168.026 163.922,168.042 163.922,166.807 161.214 L 165.713 158.812 167.308 156.807 L 168.904 154.801 169.945 157.495 L 170.987 160.188 170.089 161.320 M171.896 159.372 C 171.572 159.763,169.744 156.479,169.744 155.505 C 169.744 155.430,170.315 156.165,171.012 157.139 C 172.057 158.598,172.212 158.991,171.896 159.372 M228.518 159.643 L 225.503 163.574 223.845 161.937 C 222.934 161.037,222.188 160.431,222.188 160.590 C 222.188 160.750,222.883 161.584,223.732 162.444 L 225.276 164.007 223.850 165.804 C 222.094 168.017,222.162 168.098,222.006 163.613 L 221.877 159.914 226.609 157.717 C 229.212 156.509,231.384 155.563,231.437 155.616 C 231.490 155.669,230.177 157.482,228.518 159.643 M233.505 163.848 C 233.953 167.859,234.382 171.440,234.458 171.806 C 234.540 172.201,234.415 172.541,234.152 172.642 C 233.795 172.780,222.667 169.317,222.217 168.928 C 222.114 168.839,224.360 165.759,225.349 164.634 C 225.508 164.452,227.272 165.989,229.796 168.508 C 232.097 170.805,233.980 172.548,233.980 172.382 C 233.980 172.216,232.149 170.245,229.911 168.003 L 225.843 163.926 229.058 159.722 C 231.487 156.546,232.324 155.645,232.482 156.037 C 232.596 156.322,233.057 159.837,233.505 163.848 M237.353 164.703 C 239.423 169.013,241.117 172.609,241.117 172.693 C 241.117 172.778,239.802 172.847,238.194 172.847 L 235.270 172.847 235.102 171.994 C 235.010 171.524,234.853 170.372,234.754 169.434 C 234.655 168.495,234.442 166.680,234.280 165.400 C 234.119 164.119,233.904 162.304,233.803 161.365 C 233.703 160.427,233.511 158.917,233.379 158.012 C 233.048 155.758,233.095 155.836,237.353 164.703 M185.260 159.373 C 188.247 159.976,190.965 160.550,191.301 160.649 C 191.672 160.759,190.579 161.112,188.508 161.552 C 186.636 161.950,184.127 162.489,182.933 162.751 C 181.738 163.013,180.724 163.227,180.679 163.227 C 180.490 163.227,178.433 158.742,178.433 158.330 C 178.433 158.011,178.637 157.937,179.131 158.078 C 179.515 158.187,182.273 158.770,185.260 159.373 M197.983 158.226 L 202.793 158.417 198.137 159.423 L 193.481 160.429 187.896 159.336 C 184.825 158.734,182.172 158.188,182.002 158.122 C 181.528 157.938,192.552 158.009,197.983 158.226 M206.511 159.736 C 206.615 160.547,206.765 161.644,206.846 162.174 L 206.994 163.138 201.426 162.019 C 195.313 160.790,194.817 160.603,196.798 160.273 C 197.535 160.150,199.884 159.658,202.017 159.179 C 204.151 158.701,205.992 158.299,206.110 158.286 C 206.227 158.273,206.408 158.926,206.511 159.736 M162.065 170.341 C 159.070 173.853,156.293 177.071,155.892 177.492 L 155.165 178.258 153.688 176.871 L 152.211 175.485 153.566 176.929 L 154.920 178.374 152.669 182.515 C 149.554 188.243,149.213 188.732,147.775 189.536 L 146.509 190.243 148.151 185.346 C 150.019 179.777,152.356 174.893,154.132 172.847 C 155.827 170.895,163.562 161.426,164.474 160.187 L 165.227 159.164 166.369 161.561 L 167.510 163.957 162.065 170.341 M179.186 161.577 C 180.240 163.796,180.312 164.135,180.229 166.465 L 180.140 168.968 178.348 166.428 L 176.556 163.887 177.246 161.540 C 178.075 158.721,177.827 158.716,179.186 161.577 M174.309 161.776 L 175.925 164.039 175.470 165.573 C 175.219 166.416,174.932 167.316,174.832 167.572 C 174.726 167.844,174.022 166.434,173.138 164.178 C 172.006 161.291,171.710 160.217,171.964 159.912 C 172.485 159.283,172.582 159.360,174.309 161.776 M219.980 160.686 C 219.573 160.995,217.634 162.348,215.671 163.692 C 213.708 165.037,211.265 166.714,210.240 167.420 C 209.216 168.126,208.204 168.807,207.991 168.932 C 207.692 169.108,207.603 168.487,207.603 166.221 L 207.603 163.282 210.150 162.309 C 212.285 161.494,218.009 160.258,220.135 160.153 C 220.644 160.128,220.624 160.197,219.980 160.686 M221.174 168.689 C 221.118 168.745,219.752 168.862,218.139 168.949 C 216.526 169.036,213.671 169.191,211.795 169.294 C 209.919 169.396,208.498 169.365,208.637 169.224 C 208.776 169.083,211.637 167.074,214.996 164.759 L 221.102 160.549 221.189 164.568 C 221.236 166.779,221.230 168.633,221.174 168.689 M172.897 165.089 C 174.010 168.128,174.045 168.102,171.422 166.183 C 170.072 165.196,168.846 164.277,168.697 164.142 C 168.549 164.007,169.037 163.186,169.784 162.319 L 171.140 160.742 171.706 162.062 C 172.017 162.788,172.553 164.151,172.897 165.089 M245.236 166.193 C 247.431 170.134,248.405 172.250,249.050 174.482 L 249.915 177.479 249.191 178.887 C 248.248 180.721,248.484 180.852,245.041 176.580 L 242.048 172.865 242.048 166.753 C 242.048 163.392,242.102 160.700,242.168 160.771 C 242.234 160.842,243.614 163.282,245.236 166.193 M199.093 162.155 C 202.152 162.760,204.794 163.307,204.965 163.372 C 205.136 163.436,200.178 163.486,193.949 163.482 C 183.726 163.477,182.789 163.435,184.329 163.051 C 186.334 162.551,192.713 161.141,193.197 161.090 C 193.380 161.071,196.034 161.550,199.093 162.155 M183.158 164.907 C 189.507 167.258,196.962 170.010,197.362 170.151 C 198.258 170.467,195.909 170.358,188.673 169.747 C 184.663 169.409,181.286 169.130,181.171 169.128 C 181.056 169.125,180.916 167.949,180.861 166.514 C 180.805 165.079,180.862 163.968,180.986 164.046 C 181.110 164.123,182.088 164.511,183.158 164.907 M205.570 164.701 C 204.791 165.904,202.292 169.347,201.552 170.238 L 200.931 170.985 196.897 169.454 C 194.678 168.612,190.559 167.063,187.742 166.011 C 184.926 164.959,182.564 164.042,182.493 163.973 C 182.422 163.904,187.709 163.848,194.243 163.848 L 206.123 163.848 205.570 164.701 M206.982 166.718 L 206.827 169.589 204.537 170.143 C 201.578 170.859,201.583 170.970,204.404 167.144 C 207.331 163.172,207.172 163.198,206.982 166.718 M172.692 167.687 C 173.375 168.196,174.051 168.713,174.195 168.835 C 174.574 169.157,169.946 176.115,168.121 177.967 C 167.920 178.171,167.877 176.415,167.996 172.847 C 168.096 169.860,168.181 166.741,168.185 165.916 L 168.192 164.416 169.822 165.588 C 170.718 166.233,172.009 167.178,172.692 167.687 M178.088 167.089 C 178.951 168.273,179.627 169.268,179.588 169.299 C 179.489 169.379,175.251 168.843,175.183 168.742 C 175.090 168.603,176.318 164.733,176.422 164.837 C 176.475 164.891,177.224 165.904,178.088 167.089 M167.435 172.149 L 167.235 178.898 164.998 180.998 C 161.461 184.319,157.189 187.937,157.402 187.430 C 158.289 185.324,167.441 165.413,167.525 165.407 C 167.585 165.403,167.544 168.437,167.435 172.149 M161.749 176.637 C 159.063 182.538,156.834 187.336,156.794 187.301 C 156.755 187.266,156.440 185.311,156.094 182.957 L 155.465 178.678 157.096 176.771 C 157.994 175.722,158.867 174.708,159.038 174.518 C 159.209 174.327,160.954 172.285,162.917 169.980 C 164.880 167.675,166.519 165.816,166.559 165.849 C 166.600 165.882,164.436 170.737,161.749 176.637 M179.732 170.023 C 180.161 170.176,179.847 170.754,177.966 173.263 L 175.678 176.316 175.521 175.280 C 175.434 174.710,175.288 173.167,175.196 171.851 L 175.029 169.458 177.119 169.647 C 178.268 169.751,179.444 169.920,179.732 170.023 M220.946 169.572 C 220.946 169.670,219.881 171.966,218.578 174.674 L 216.210 179.598 213.846 176.799 C 212.546 175.259,210.738 173.112,209.829 172.027 L 208.176 170.054 209.208 170.015 C 209.776 169.993,211.777 169.888,213.654 169.782 C 220.073 169.419,220.946 169.393,220.946 169.572 M186.967 170.230 C 193.780 170.706,199.212 171.180,199.342 171.310 C 199.420 171.387,195.305 172.516,190.199 173.817 L 180.915 176.183 180.915 173.170 C 180.915 169.672,180.926 169.653,182.771 169.870 C 183.542 169.961,185.431 170.123,186.967 170.230 M233.264 173.276 C 233.297 173.305,231.715 173.792,229.749 174.357 C 227.783 174.923,226.137 175.338,226.091 175.280 C 226.046 175.222,225.308 173.973,224.452 172.505 L 222.896 169.835 228.050 171.528 C 230.885 172.460,233.231 173.246,233.264 173.276 M206.982 173.618 L 206.982 177.182 205.198 177.034 C 204.216 176.952,198.666 176.793,192.863 176.681 L 182.312 176.476 184.484 175.907 C 185.679 175.594,191.195 174.161,196.742 172.723 C 202.289 171.285,206.862 170.096,206.905 170.081 C 206.947 170.066,206.982 171.658,206.982 173.618 M221.847 175.029 L 221.877 176.745 219.550 177.897 C 218.270 178.530,217.223 178.978,217.223 178.892 C 217.223 178.806,218.165 176.759,219.317 174.344 L 221.412 169.953 221.614 171.633 C 221.725 172.557,221.830 174.085,221.847 175.029 M224.160 172.984 C 224.945 174.339,225.544 175.490,225.492 175.543 C 225.439 175.595,224.744 175.834,223.947 176.074 L 222.498 176.510 222.498 175.656 C 222.498 175.187,222.410 173.699,222.303 172.351 C 222.076 169.495,222.154 169.522,224.160 172.984 M212.480 175.874 L 215.650 179.603 211.549 178.307 L 207.448 177.012 207.358 174.099 C 207.241 170.318,207.398 169.910,208.482 171.178 C 208.937 171.710,210.736 173.824,212.480 175.874 M180.583 173.788 L 180.525 176.900 185.142 177.012 C 187.682 177.074,192.483 177.155,195.811 177.192 C 202.596 177.268,202.540 177.380,195.035 178.726 C 193.157 179.063,190.097 179.617,188.233 179.958 C 184.399 180.658,184.776 180.746,182.874 178.713 C 182.087 177.871,181.367 177.257,181.275 177.350 C 181.182 177.442,181.833 178.252,182.719 179.150 L 184.332 180.783 180.406 183.028 C 178.247 184.262,176.423 185.215,176.353 185.145 C 176.283 185.075,176.091 183.237,175.926 181.062 L 175.626 177.106 178.038 173.906 C 179.365 172.146,180.493 170.699,180.545 170.690 C 180.598 170.682,180.615 172.076,180.583 173.788 M174.813 174.000 C 175.037 177.406,174.684 178.276,172.290 180.213 C 171.437 180.903,170.383 182.590,168.204 186.756 C 166.588 189.842,165.230 192.331,165.185 192.286 C 165.034 192.135,174.185 170.985,174.401 170.985 C 174.519 170.985,174.705 172.342,174.813 174.000 M167.853 184.357 C 165.104 190.742,162.784 196.141,162.697 196.355 C 162.527 196.775,161.624 195.666,158.887 191.675 L 157.221 189.246 163.430 183.141 C 167.140 179.493,170.252 176.140,171.163 174.810 C 172.001 173.586,172.724 172.621,172.769 172.666 C 172.814 172.711,170.602 177.972,167.853 184.357 M234.506 173.701 C 234.434 173.829,233.844 175.818,233.196 178.123 C 232.547 180.427,231.977 182.363,231.929 182.425 C 231.564 182.891,229.450 180.844,228.243 178.856 C 226.434 175.877,226.439 175.970,228.084 175.465 C 228.852 175.229,230.597 174.690,231.963 174.267 C 234.880 173.362,234.670 173.409,234.506 173.701 M244.963 177.198 L 247.969 180.929 246.537 183.556 C 245.750 185.000,245.011 186.241,244.895 186.312 C 244.727 186.416,236.693 175.507,235.749 173.892 C 235.545 173.545,236.084 173.468,238.729 173.468 L 241.958 173.468 244.963 177.198 M236.736 180.461 C 237.654 183.625,238.349 186.270,238.279 186.339 C 238.188 186.430,233.181 183.490,232.516 182.955 C 232.389 182.853,234.755 174.709,234.911 174.710 C 234.996 174.710,235.817 177.298,236.736 180.461 M244.226 186.947 C 244.239 187.287,244.007 187.331,241.401 187.477 L 239.446 187.587 239.020 186.191 C 238.786 185.423,238.177 183.328,237.666 181.536 C 237.156 179.744,236.536 177.679,236.290 176.948 C 236.043 176.217,235.842 175.461,235.842 175.268 C 235.842 174.860,244.209 186.515,244.226 186.947 M227.361 178.407 L 228.652 180.554 225.772 178.795 L 222.891 177.036 223.858 176.672 C 225.701 175.978,225.984 176.118,227.361 178.407 M224.288 178.475 C 225.437 179.181,226.831 180.033,227.386 180.368 C 227.940 180.703,228.394 181.080,228.394 181.206 C 228.394 181.539,221.565 187.277,221.168 187.277 C 220.864 187.277,216.662 180.758,216.620 180.221 C 216.607 180.050,221.620 177.301,222.116 177.207 C 222.162 177.199,223.139 177.769,224.288 178.475 M204.448 177.736 C 204.391 177.864,203.865 178.853,203.278 179.934 L 202.213 181.900 200.330 181.731 C 199.295 181.638,195.865 181.385,192.708 181.169 C 189.550 180.952,187.246 180.728,187.587 180.670 C 187.929 180.611,191.769 179.891,196.121 179.068 C 205.430 177.309,204.576 177.446,204.448 177.736 M209.087 178.088 C 210.063 178.410,211.874 178.988,213.111 179.372 C 215.683 180.171,215.611 179.972,214.499 183.243 L 213.654 185.725 209.633 181.614 C 205.207 177.089,205.161 176.792,209.087 178.088 M212.768 185.473 C 212.719 185.522,210.707 184.796,208.296 183.859 C 205.885 182.923,203.773 182.157,203.604 182.157 C 202.727 182.157,202.979 181.337,204.735 178.471 C 205.186 177.734,205.192 177.738,209.022 181.559 C 211.131 183.663,212.817 185.424,212.768 185.473 M175.425 182.367 L 175.611 185.525 174.714 185.010 C 173.397 184.254,173.021 180.552,174.108 179.027 C 175.026 177.737,175.174 178.113,175.425 182.367 M251.130 181.458 C 251.599 183.123,252.144 185.752,252.340 187.301 L 252.697 190.119 251.660 192.422 C 251.090 193.688,250.544 194.818,250.448 194.932 C 250.351 195.047,249.206 193.353,247.904 191.168 L 245.536 187.196 247.713 182.815 C 248.909 180.405,249.976 178.433,250.082 178.433 C 250.189 178.433,250.660 179.794,251.130 181.458 M155.621 183.708 C 155.896 185.671,156.173 187.589,156.239 187.969 C 156.358 188.665,153.243 188.731,150.944 188.080 C 150.346 187.911,152.298 183.681,154.673 179.999 C 155.032 179.442,155.015 179.379,155.621 183.708 M218.417 184.266 C 219.467 186.023,220.326 187.513,220.326 187.576 C 220.326 187.672,214.434 186.191,214.198 186.036 C 214.134 185.994,215.250 182.530,215.839 180.941 C 216.055 180.359,216.177 180.517,218.417 184.266 M186.877 181.395 C 186.970 181.488,186.811 182.500,186.523 183.645 L 185.999 185.725 184.310 185.809 C 183.382 185.856,181.383 185.786,179.869 185.654 L 177.117 185.415 179.036 184.387 C 180.091 183.821,181.749 182.884,182.720 182.304 C 184.328 181.342,186.377 180.894,186.877 181.395 M197.948 182.170 C 202.129 182.499,201.845 182.323,201.167 184.163 C 200.389 186.276,199.967 186.232,193.447 183.362 C 192.744 183.052,191.487 182.519,190.654 182.177 L 189.139 181.555 191.777 181.723 C 193.227 181.816,196.004 182.017,197.948 182.170 M229.288 184.711 C 229.330 186.377,229.704 186.170,225.186 186.985 C 221.663 187.621,221.649 187.721,225.535 184.435 C 229.263 181.281,229.202 181.277,229.288 184.711 M193.192 183.860 L 198.138 185.874 192.362 185.877 L 186.586 185.881 187.068 183.863 C 187.654 181.416,187.189 181.416,193.192 183.860 M208.999 184.758 L 211.792 185.858 206.413 185.869 C 203.455 185.875,201.081 185.772,201.138 185.639 C 201.195 185.506,201.508 184.683,201.834 183.810 L 202.427 182.222 204.316 182.940 C 205.356 183.335,207.463 184.153,208.999 184.758 M231.808 183.415 C 231.808 184.126,231.155 183.925,230.717 183.079 L 230.221 182.119 231.014 182.639 C 231.451 182.925,231.808 183.274,231.808 183.415 M230.863 186.450 C 230.184 188.971,229.965 188.947,229.951 186.346 C 229.943 184.981,229.856 183.514,229.758 183.088 C 229.630 182.536,229.820 182.700,230.416 183.657 C 231.209 184.931,231.233 185.078,230.863 186.450 M236.206 185.830 L 238.876 187.486 237.772 189.942 C 237.164 191.292,236.566 192.397,236.441 192.397 C 235.861 192.397,231.880 185.024,232.031 184.229 C 232.211 183.288,231.937 183.182,236.206 185.830 M233.804 189.305 C 234.925 191.188,235.842 192.777,235.842 192.835 C 235.842 192.955,230.481 191.452,230.288 191.279 C 230.160 191.163,231.517 185.881,231.675 185.881 C 231.725 185.881,232.683 187.421,233.804 189.305 M184.906 186.494 C 185.282 186.500,183.568 188.463,177.748 194.692 L 175.978 196.587 175.964 191.350 L 175.950 186.114 180.217 186.301 C 182.564 186.404,184.674 186.491,184.906 186.494 M191.078 188.536 C 193.169 189.519,194.880 190.410,194.880 190.518 C 194.880 190.742,188.031 194.651,187.888 194.508 C 187.566 194.186,186.634 186.487,186.932 186.609 C 187.122 186.686,188.988 187.554,191.078 188.536 M197.802 188.383 L 195.920 190.265 192.064 188.397 L 188.208 186.529 193.946 186.515 L 199.683 186.501 197.802 188.383 M213.041 187.510 C 212.806 188.064,210.947 192.262,208.910 196.837 L 205.207 205.157 202.874 195.829 L 200.541 186.501 207.004 186.501 L 213.467 186.501 213.041 187.510 M186.970 193.173 L 187.170 195.035 184.268 196.639 C 182.671 197.522,180.270 198.834,178.932 199.556 L 176.499 200.868 180.114 195.551 C 182.102 192.627,184.248 189.484,184.882 188.568 L 186.036 186.900 186.402 189.106 C 186.604 190.319,186.859 192.149,186.970 193.173 M217.378 187.493 C 218.914 187.876,220.223 188.223,220.288 188.264 C 220.544 188.428,215.349 206.672,215.046 206.672 C 214.939 206.672,214.819 205.240,214.779 203.491 C 214.739 201.742,214.577 197.587,214.419 194.259 C 214.065 186.839,214.065 186.813,214.352 186.803 C 214.480 186.799,215.842 187.109,217.378 187.493 M229.387 187.199 C 229.458 187.413,229.543 189.682,229.576 192.242 L 229.636 196.897 228.162 195.323 C 227.351 194.458,225.544 192.494,224.147 190.959 L 221.606 188.169 223.837 187.785 C 225.063 187.574,226.695 187.284,227.463 187.141 C 228.231 186.997,228.949 186.864,229.059 186.845 C 229.169 186.827,229.317 186.986,229.387 187.199 M199.415 196.902 C 199.201 202.190,198.941 206.307,198.837 206.051 C 198.733 205.795,198.083 202.235,197.391 198.140 L 196.134 190.695 197.894 188.917 C 198.862 187.938,199.688 187.172,199.729 187.212 C 199.770 187.253,199.628 191.614,199.415 196.902 M244.437 187.975 C 244.366 188.103,243.230 190.435,241.913 193.157 L 239.518 198.107 238.068 195.834 L 236.618 193.562 237.834 190.981 L 239.050 188.401 241.092 188.204 C 242.215 188.095,243.274 187.958,243.445 187.899 C 244.022 187.699,244.568 187.741,244.437 187.975 M183.627 189.527 C 183.041 190.337,181.109 193.163,179.334 195.806 L 176.106 200.612 176.012 198.990 L 175.918 197.369 180.198 192.711 C 184.829 187.670,185.253 187.277,183.627 189.527 M213.652 190.424 C 213.716 191.424,213.853 194.546,213.955 197.362 C 214.057 200.178,214.219 203.972,214.314 205.791 L 214.486 209.100 210.967 207.599 C 209.031 206.774,207.063 205.936,206.593 205.738 C 206.122 205.539,205.785 205.284,205.843 205.171 C 205.901 205.058,207.600 201.229,209.619 196.663 C 211.639 192.098,213.345 188.417,213.412 188.484 C 213.479 188.551,213.587 189.424,213.652 190.424 M248.059 192.426 L 249.824 195.402 249.323 197.236 C 249.047 198.244,248.710 199.488,248.573 200.000 C 248.101 201.774,245.761 209.932,245.636 210.240 C 245.567 210.411,245.500 205.528,245.486 199.388 C 245.465 189.960,245.526 188.320,245.878 188.837 C 246.107 189.174,247.088 190.789,248.059 192.426 M155.179 189.262 C 155.566 189.411,154.786 190.992,151.304 197.108 C 148.906 201.321,146.911 204.733,146.869 204.692 C 146.828 204.650,146.924 203.857,147.083 202.929 C 148.026 197.434,149.289 190.258,149.444 189.522 L 149.625 188.663 152.159 188.869 C 153.553 188.982,154.912 189.159,155.179 189.262 M225.281 192.877 C 227.376 195.188,229.038 197.124,228.975 197.179 C 228.636 197.469,222.743 199.262,222.599 199.119 C 222.506 199.025,222.170 196.672,221.852 193.889 C 221.535 191.106,221.271 188.794,221.266 188.751 C 221.232 188.459,221.897 189.142,225.281 192.877 M244.770 205.508 L 244.686 211.171 242.705 206.051 C 241.616 203.235,240.535 200.410,240.304 199.774 C 239.888 198.630,239.911 198.560,242.285 193.627 L 244.686 188.638 244.770 194.241 C 244.817 197.323,244.817 202.393,244.770 205.508 M202.622 197.149 C 203.676 201.383,204.494 205.053,204.441 205.305 C 204.357 205.704,199.796 209.825,199.624 209.657 C 199.505 209.539,200.195 190.702,200.347 189.956 C 200.566 188.873,200.548 188.814,202.622 197.149 M148.561 189.837 C 148.496 189.965,147.066 193.036,145.384 196.661 C 143.703 200.286,142.281 203.206,142.225 203.151 C 142.139 203.065,145.327 193.426,146.017 191.684 C 146.139 191.376,146.742 190.783,147.357 190.365 C 148.549 189.555,148.749 189.467,148.561 189.837 M159.564 193.411 L 162.262 197.207 160.331 199.069 C 154.802 204.400,152.631 206.191,152.840 205.248 C 152.950 204.751,153.361 203.018,153.753 201.396 C 154.146 199.775,154.937 196.459,155.511 194.027 C 156.086 191.596,156.625 189.608,156.711 189.610 C 156.796 189.613,158.080 191.323,159.564 193.411 M218.882 203.730 C 217.228 205.859,215.821 207.546,215.755 207.479 C 215.647 207.372,218.229 198.046,220.099 191.786 L 220.791 189.468 221.340 194.663 L 221.888 199.859 218.882 203.730 M153.804 198.660 C 151.561 208.009,152.151 207.003,149.067 206.734 L 146.564 206.517 151.089 198.547 C 153.578 194.163,155.637 190.602,155.665 190.634 C 155.693 190.665,154.856 194.277,153.804 198.660 M192.179 197.021 L 189.139 202.885 188.534 198.981 C 188.174 196.654,188.048 195.035,188.224 194.975 C 188.386 194.920,189.984 194.048,191.777 193.037 C 193.569 192.026,195.076 191.189,195.127 191.177 C 195.178 191.166,193.851 193.795,192.179 197.021 M253.386 204.189 C 253.432 210.248,253.409 214.926,253.333 214.585 C 253.258 214.244,252.591 209.927,251.852 204.993 L 250.507 196.021 251.631 193.620 L 252.754 191.219 253.028 192.196 C 253.178 192.733,253.339 198.130,253.386 204.189 M197.617 202.853 C 198.793 209.640,198.801 209.735,198.139 209.370 C 197.770 209.166,195.639 207.812,193.405 206.362 L 189.342 203.724 192.499 197.570 L 195.655 191.417 196.039 193.691 C 196.251 194.942,196.961 199.065,197.617 202.853 M147.533 196.913 C 147.104 199.464,146.704 201.831,146.643 202.172 C 146.583 202.514,146.437 203.351,146.319 204.034 C 145.886 206.548,145.980 206.460,143.929 206.274 C 141.358 206.040,141.301 206.620,144.570 199.743 C 145.558 197.666,146.759 195.090,147.239 194.020 C 148.416 191.396,148.433 191.564,147.533 196.913 M231.548 192.785 C 233.572 194.422,236.458 207.021,236.461 214.231 L 236.462 219.153 234.248 224.161 C 231.807 229.681,230.327 232.739,230.096 232.739 C 230.014 232.739,229.946 223.662,229.946 212.568 C 229.946 190.622,229.880 191.436,231.548 192.785 M234.517 193.177 C 235.990 193.614,236.204 193.812,237.663 196.087 L 239.228 198.527 238.078 207.487 L 236.928 216.447 236.739 211.637 C 236.511 205.837,235.778 202.080,233.837 196.760 C 233.062 194.637,232.428 192.856,232.428 192.804 C 232.428 192.618,232.950 192.712,234.517 193.177 M188.024 199.547 L 188.608 203.103 186.884 206.093 L 185.160 209.084 180.858 205.494 C 178.492 203.520,176.596 201.787,176.644 201.643 C 176.769 201.267,187.261 195.526,187.359 195.779 C 187.404 195.896,187.703 197.591,188.024 199.547 M251.354 205.741 C 252.066 210.434,252.818 215.478,253.026 216.950 L 253.403 219.624 249.820 216.820 C 247.850 215.278,246.058 213.855,245.839 213.658 C 245.388 213.253,245.403 213.183,247.741 204.965 C 248.518 202.234,249.318 199.331,249.520 198.514 C 249.721 197.697,249.925 197.068,249.972 197.118 C 250.020 197.167,250.642 201.047,251.354 205.741 M229.635 200.794 C 229.635 203.207,229.547 203.864,229.247 203.687 C 229.034 203.561,227.607 202.620,226.075 201.597 L 223.291 199.736 226.231 198.729 C 227.847 198.175,229.275 197.710,229.403 197.697 C 229.531 197.684,229.635 199.077,229.635 200.794 M159.469 203.491 C 157.898 206.521,156.578 209.043,156.537 209.097 C 156.434 209.233,153.022 207.289,152.835 206.988 C 152.716 206.796,161.869 198.036,162.234 197.994 C 162.285 197.988,161.041 200.462,159.469 203.491 M242.971 208.223 C 243.113 208.650,243.588 209.934,244.026 211.077 L 244.823 213.155 241.036 216.099 C 238.953 217.719,237.228 219.018,237.202 218.986 C 237.176 218.955,237.268 218.092,237.406 217.067 C 237.545 216.043,237.747 214.438,237.856 213.499 C 237.965 212.560,238.109 211.443,238.177 211.016 C 238.434 209.389,239.566 200.680,239.584 200.197 C 239.599 199.761,242.222 205.977,242.971 208.223 M226.440 202.444 C 229.368 204.338,229.377 204.114,226.284 206.305 L 223.584 208.218 223.392 207.057 C 223.286 206.418,223.120 204.594,223.022 203.002 L 222.846 200.108 223.525 200.553 C 223.899 200.798,225.210 201.649,226.440 202.444 M222.451 203.040 C 222.481 204.099,222.588 205.686,222.689 206.566 L 222.873 208.167 220.746 208.356 C 219.576 208.459,217.952 208.606,217.137 208.680 C 215.381 208.842,215.209 209.237,219.062 204.243 C 222.208 200.166,222.369 200.108,222.451 203.040 M180.501 205.805 L 185.030 209.593 184.821 213.163 C 184.705 215.127,184.574 216.771,184.528 216.816 C 184.483 216.862,182.132 214.214,179.305 210.932 L 174.164 204.965 174.979 203.491 C 175.976 201.691,175.188 201.361,180.501 205.805 M195.599 208.316 C 198.400 210.125,198.490 209.993,193.638 211.192 C 189.382 212.245,189.279 212.236,187.192 210.634 C 185.677 209.471,185.586 209.329,185.969 208.723 C 186.196 208.363,186.918 207.140,187.574 206.005 L 188.765 203.942 190.969 205.345 C 192.181 206.117,194.265 207.454,195.599 208.316 M229.572 209.321 C 229.343 209.547,224.356 208.700,224.440 208.450 C 224.491 208.294,225.647 207.368,227.007 206.392 L 229.480 204.616 229.572 206.923 C 229.622 208.192,229.622 209.271,229.572 209.321 M179.037 211.268 C 181.130 213.710,182.784 215.768,182.712 215.840 C 182.640 215.912,180.775 214.885,178.567 213.558 L 174.554 211.146 174.463 208.521 C 174.386 206.274,174.435 205.963,174.802 206.362 C 175.037 206.618,176.943 208.825,179.037 211.268 M204.204 208.456 C 203.907 209.779,203.407 211.947,203.092 213.275 L 202.520 215.689 201.187 213.275 C 200.455 211.947,199.853 210.699,199.850 210.502 C 199.846 210.245,204.284 206.183,204.699 206.064 C 204.723 206.057,204.500 207.133,204.204 208.456 M211.553 210.219 C 211.841 210.477,210.896 211.210,207.674 213.228 C 205.331 214.696,203.367 215.776,203.310 215.629 C 203.253 215.481,203.554 213.859,203.978 212.025 C 204.402 210.190,204.844 208.103,204.959 207.387 L 205.169 206.086 208.170 207.982 C 209.821 209.025,211.343 210.031,211.553 210.219 M144.298 210.219 C 144.298 210.765,140.148 223.106,140.010 222.969 C 139.847 222.806,140.541 208.359,140.762 207.321 C 140.923 206.564,144.298 209.329,144.298 210.219 M144.631 206.982 C 145.481 206.982,145.497 207.012,145.170 207.991 C 144.648 209.556,144.517 209.558,143.042 208.027 L 141.660 206.591 142.708 206.787 C 143.284 206.894,144.149 206.982,144.631 206.982 M210.420 207.940 C 213.779 209.396,213.788 209.402,213.180 209.787 C 212.512 210.209,212.565 210.230,209.740 208.384 C 208.308 207.449,207.218 206.681,207.317 206.678 C 207.415 206.674,208.812 207.242,210.420 207.940 M150.075 207.425 C 152.345 207.555,154.768 208.449,156.032 209.621 C 156.372 209.936,153.760 214.121,152.665 215.014 L 151.379 216.064 149.312 214.031 C 148.176 212.914,146.748 211.565,146.138 211.035 L 145.031 210.071 145.518 208.524 C 145.957 207.129,146.081 206.992,146.780 207.129 C 147.207 207.212,148.690 207.346,150.075 207.425 M222.327 209.114 C 220.534 210.756,217.107 212.908,216.882 212.533 C 216.740 212.296,216.268 211.519,215.833 210.806 L 215.042 209.510 216.676 209.330 C 217.574 209.231,218.937 209.106,219.705 209.051 C 220.473 208.997,221.444 208.928,221.862 208.898 C 222.309 208.866,222.501 208.955,222.327 209.114 M226.765 209.628 C 229.292 209.899,229.305 209.973,227.177 212.079 L 225.368 213.869 224.554 211.738 C 223.590 209.217,223.574 209.066,224.282 209.266 C 224.581 209.351,225.698 209.514,226.765 209.628 M223.901 211.655 C 224.914 214.305,225.168 214.104,221.346 213.673 C 217.369 213.225,217.420 213.338,220.261 211.251 C 223.214 209.083,222.905 209.049,223.901 211.655 M215.426 211.159 L 216.262 212.544 214.684 211.573 C 213.232 210.679,213.151 210.570,213.672 210.189 C 214.470 209.606,214.496 209.620,215.426 211.159 M188.022 211.898 L 188.767 212.486 187.877 213.691 C 187.387 214.353,186.580 215.375,186.083 215.961 L 185.179 217.026 185.362 214.099 C 185.463 212.489,185.551 210.918,185.558 210.607 C 185.571 210.001,185.719 210.079,188.022 211.898 M200.766 213.550 L 202.042 215.928 200.711 215.520 C 199.571 215.171,196.167 214.098,192.087 212.803 C 191.023 212.465,191.081 212.437,194.880 211.470 C 199.350 210.332,198.968 210.197,200.766 213.550 M229.618 218.386 L 229.601 226.377 228.723 223.894 C 228.239 222.529,227.282 219.876,226.595 217.998 L 225.345 214.585 227.404 212.490 C 228.537 211.338,229.502 210.396,229.549 210.396 C 229.597 210.396,229.628 213.991,229.618 218.386 M149.095 214.403 C 150.251 215.580,150.833 216.392,150.647 216.570 C 150.483 216.727,149.162 217.779,147.711 218.908 C 146.261 220.038,144.655 221.308,144.143 221.730 C 142.330 223.226,140.438 224.638,140.356 224.555 C 140.290 224.490,144.101 212.828,144.763 211.068 C 144.955 210.557,146.442 211.701,149.095 214.403 M215.134 212.472 L 216.615 213.382 212.728 217.230 C 207.621 222.286,208.303 222.107,205.363 219.168 L 202.890 216.695 205.324 215.237 C 206.663 214.435,208.871 213.094,210.232 212.256 C 212.341 210.958,212.775 210.795,213.180 211.148 C 213.441 211.376,214.320 211.972,215.134 212.472 M177.940 214.234 C 178.163 214.598,179.153 216.190,180.140 217.773 C 181.128 219.355,181.881 220.694,181.814 220.748 C 181.616 220.905,172.605 219.569,172.387 219.350 C 172.233 219.195,173.465 214.347,174.249 212.022 C 174.418 211.523,177.362 213.287,177.940 214.234 M193.046 216.056 L 196.787 219.235 194.825 220.122 C 193.746 220.609,192.329 221.201,191.678 221.437 L 190.493 221.865 188.032 219.805 C 185.106 217.356,185.195 217.937,187.320 215.163 C 189.428 212.411,188.603 212.282,193.046 216.056 M195.770 214.565 C 202.892 216.745,202.418 216.406,200.271 217.788 C 199.268 218.433,198.283 219.062,198.081 219.184 C 197.860 219.318,196.431 218.332,194.512 216.722 C 190.782 213.593,189.866 212.723,190.535 212.948 C 190.791 213.034,193.147 213.762,195.770 214.565 M218.078 215.457 C 218.870 216.559,218.992 216.913,218.673 217.178 C 218.357 217.440,212.891 219.670,210.396 220.555 C 210.140 220.646,211.457 219.173,213.322 217.281 C 215.188 215.389,216.797 213.893,216.897 213.955 C 216.998 214.017,217.529 214.693,218.078 215.457 M221.743 214.306 L 224.186 214.528 221.905 215.565 C 220.651 216.135,219.596 216.602,219.562 216.602 C 219.528 216.602,219.033 215.951,218.461 215.156 L 217.423 213.710 218.362 213.897 C 218.878 214.001,220.399 214.185,221.743 214.306 M250.061 217.607 C 251.376 218.643,252.160 219.454,251.923 219.531 C 249.088 220.458,244.220 221.143,244.220 220.615 C 244.220 219.978,244.794 215.612,245.025 214.490 C 245.191 213.681,244.668 213.357,250.061 217.607 M184.310 217.752 C 184.581 217.960,183.086 220.636,182.704 220.628 C 182.488 220.623,181.451 219.165,180.398 217.388 L 178.485 214.156 181.329 215.902 C 182.894 216.862,184.235 217.695,184.310 217.752 M244.306 215.283 C 244.220 215.923,243.991 217.554,243.797 218.908 L 243.445 221.368 240.186 222.064 C 238.394 222.447,236.555 222.835,236.100 222.926 L 235.272 223.093 235.944 221.606 C 236.492 220.393,243.574 214.119,244.395 214.119 C 244.432 214.119,244.392 214.643,244.306 215.283 M224.480 220.248 C 224.378 223.107,224.204 226.111,224.094 226.923 L 223.894 228.400 222.905 226.147 C 220.442 220.543,219.388 217.796,219.580 217.485 C 219.772 217.175,223.911 215.117,224.436 215.071 C 224.563 215.060,224.583 217.389,224.480 220.248 M226.830 220.171 C 226.837 220.343,227.384 221.904,228.047 223.642 L 229.251 226.801 227.119 228.218 C 225.947 228.998,224.912 229.635,224.819 229.635 C 224.637 229.635,224.891 221.777,225.179 218.475 L 225.355 216.469 226.086 218.165 C 226.488 219.097,226.823 220.000,226.830 220.171 M203.726 221.500 C 199.682 221.609,196.907 220.219,198.991 219.129 C 199.375 218.929,200.318 218.364,201.086 217.875 L 202.483 216.986 204.741 219.199 L 207.000 221.412 203.726 221.500 M149.917 221.286 L 149.119 225.350 147.340 223.381 C 146.361 222.298,145.562 221.342,145.564 221.257 C 145.567 221.143,150.509 217.256,150.687 217.227 C 150.702 217.225,150.356 219.051,149.917 221.286 M153.839 224.723 L 155.715 228.654 152.737 227.272 C 151.098 226.511,149.729 225.859,149.694 225.823 C 149.659 225.786,149.993 223.947,150.435 221.736 L 151.239 217.715 151.601 219.253 C 151.800 220.099,152.807 222.560,153.839 224.723 M189.222 221.549 C 189.295 221.730,184.009 220.993,183.772 220.790 C 183.721 220.747,183.988 220.076,184.365 219.301 L 185.051 217.890 187.095 219.617 C 188.219 220.567,189.176 221.436,189.222 221.549 M216.599 220.167 L 214.585 222.181 212.020 221.983 C 208.902 221.742,208.860 221.791,213.909 219.798 C 219.055 217.766,219.007 217.760,216.599 220.167 M221.402 224.026 L 223.794 229.589 223.062 236.206 L 222.331 242.824 219.910 236.928 L 217.489 231.032 218.016 226.222 C 218.306 223.576,218.584 221.202,218.635 220.946 C 218.685 220.690,218.737 220.027,218.751 219.472 C 218.786 217.965,218.822 218.027,221.402 224.026 M218.004 221.334 C 217.889 222.401,217.748 223.623,217.691 224.050 C 217.634 224.476,217.497 225.663,217.387 226.687 C 217.039 229.911,217.143 229.880,214.486 227.557 C 213.175 226.410,211.762 225.187,211.346 224.839 C 210.930 224.490,210.092 223.743,209.484 223.179 L 208.379 222.153 209.620 222.313 C 210.303 222.401,211.699 222.556,212.723 222.658 L 214.585 222.844 216.281 221.120 C 218.361 219.004,218.258 218.991,218.004 221.334 M253.072 221.518 C 252.972 222.313,252.709 224.464,252.487 226.299 C 252.001 230.315,252.095 230.198,250.228 229.073 C 249.398 228.573,247.695 227.575,246.443 226.853 L 244.167 225.543 248.460 222.683 C 253.236 219.502,253.329 219.478,253.072 221.518 M176.416 220.665 C 180.895 221.267,181.118 221.053,172.733 224.202 L 170.602 225.003 170.813 224.138 C 171.729 220.393,171.937 219.972,172.797 220.134 C 173.251 220.219,174.880 220.458,176.416 220.665 M197.052 220.099 C 197.052 220.145,195.656 221.574,193.949 223.274 L 190.846 226.365 190.850 224.354 L 190.855 222.343 193.566 221.207 C 195.996 220.188,197.052 219.852,197.052 220.099 M199.975 222.080 C 200.174 222.597,199.898 223.203,198.448 225.437 L 197.517 226.872 194.614 226.720 C 193.017 226.637,191.662 226.521,191.602 226.461 C 191.543 226.402,192.903 224.935,194.624 223.200 L 197.754 220.046 198.773 220.823 C 199.333 221.250,199.874 221.816,199.975 222.080 M247.479 222.774 C 245.431 224.118,243.723 225.191,243.685 225.159 C 243.024 224.599,244.135 221.845,245.117 221.608 C 248.382 220.821,250.321 220.392,250.737 220.363 C 250.993 220.345,249.527 221.430,247.479 222.774 M181.472 223.817 C 180.018 226.610,180.101 226.567,177.192 226.044 C 176.765 225.967,175.377 225.746,174.108 225.551 L 171.800 225.198 174.108 224.295 C 177.973 222.783,180.713 221.791,181.691 221.550 C 182.203 221.424,182.663 221.306,182.713 221.289 C 182.764 221.271,182.205 222.409,181.472 223.817 M147.054 223.698 L 148.942 225.828 146.698 225.675 C 143.980 225.489,144.244 225.771,144.647 223.486 C 145.056 221.164,144.787 221.141,147.054 223.698 M188.053 222.069 C 188.650 222.167,189.179 222.284,189.227 222.331 C 189.335 222.434,181.419 225.834,181.288 225.741 C 181.237 225.704,181.656 224.735,182.219 223.588 L 183.243 221.501 185.105 221.697 C 186.129 221.805,187.455 221.972,188.053 222.069 M204.227 222.981 C 202.125 223.936,201.584 223.933,201.143 222.964 L 200.789 222.188 203.343 222.206 L 205.896 222.223 204.227 222.981 M243.180 223.921 L 243.049 225.654 240.492 227.366 C 238.508 228.695,237.876 228.984,237.670 228.659 C 237.360 228.166,235.813 223.660,235.922 223.566 C 236.079 223.432,241.927 222.256,242.601 222.223 C 243.273 222.190,243.303 222.277,243.180 223.921 M144.193 223.041 C 144.112 223.340,143.960 223.968,143.855 224.438 C 143.689 225.186,143.520 225.291,142.482 225.291 C 140.759 225.291,140.741 225.039,142.371 223.711 C 143.995 222.388,144.411 222.235,144.193 223.041 M206.905 223.351 C 206.824 223.821,206.361 225.702,205.876 227.532 L 204.995 230.859 203.635 227.739 C 202.887 226.023,202.330 224.565,202.397 224.498 C 202.604 224.291,206.501 222.527,206.785 222.512 C 206.932 222.504,206.986 222.882,206.905 223.351 M209.612 223.909 L 211.156 225.292 208.542 227.920 C 207.105 229.365,205.880 230.498,205.820 230.438 C 205.667 230.285,207.724 222.496,207.913 222.512 C 207.998 222.520,208.763 223.148,209.612 223.909 M190.225 224.670 L 190.225 226.532 188.130 226.496 C 186.978 226.476,185.142 226.371,184.050 226.263 L 182.064 226.067 185.757 224.466 C 190.460 222.427,190.225 222.416,190.225 224.670 M201.244 224.054 C 201.671 224.881,201.675 225.142,201.281 226.304 L 200.835 227.618 200.728 225.368 C 200.605 222.791,200.599 222.807,201.244 224.054 M236.368 226.843 L 237.281 229.480 233.644 231.852 L 230.007 234.225 231.186 232.008 C 231.835 230.788,232.961 228.423,233.688 226.753 C 235.191 223.299,235.141 223.297,236.368 226.843 M142.669 225.888 C 143.181 225.905,143.366 226.098,143.362 226.610 C 143.353 227.988,142.947 228.078,141.735 226.968 C 140.386 225.731,140.321 225.558,141.272 225.735 C 141.656 225.807,142.285 225.876,142.669 225.888 M175.795 226.404 C 177.673 226.690,179.367 227.011,179.561 227.116 C 179.795 227.243,179.062 229.162,177.394 232.795 C 176.008 235.813,174.841 238.250,174.801 238.209 C 174.732 238.141,172.564 230.887,171.511 227.203 C 171.039 225.554,171.040 225.548,171.710 225.715 C 172.079 225.807,173.918 226.117,175.795 226.404 M141.989 233.211 C 140.944 238.157,140.959 238.129,140.117 236.703 C 139.597 235.823,139.536 235.166,139.611 231.229 C 139.720 225.489,139.701 225.531,141.488 227.291 L 142.938 228.719 141.989 233.211 M147.944 226.402 C 149.064 226.578,149.135 226.731,148.492 227.580 C 148.250 227.900,147.957 229.122,147.841 230.295 C 147.587 232.873,147.657 232.864,145.426 230.609 C 143.637 228.801,143.628 228.782,143.839 227.371 L 144.052 225.953 145.494 226.098 C 146.287 226.179,147.389 226.315,147.944 226.402 M172.349 232.131 C 173.306 235.467,174.088 238.331,174.088 238.496 C 174.088 238.781,168.202 242.178,168.042 241.985 C 167.919 241.836,169.354 228.594,169.548 228.084 C 169.646 227.828,169.873 227.215,170.054 226.722 C 170.491 225.526,170.376 225.254,172.349 232.131 M202.638 226.578 C 202.638 226.753,203.117 227.987,203.702 229.318 L 204.767 231.739 204.216 233.868 C 203.913 235.039,203.018 238.510,202.228 241.583 C 200.348 248.890,200.107 249.592,200.316 247.168 C 200.405 246.144,200.552 241.885,200.644 237.704 C 200.800 230.584,200.939 229.306,201.885 226.280 C 202.026 225.829,202.638 226.071,202.638 226.578 M210.715 231.750 C 210.082 238.341,210.412 237.783,206.738 238.480 C 203.186 239.154,203.352 239.392,204.464 235.203 L 205.393 231.701 208.266 228.816 C 209.847 227.230,211.167 225.962,211.200 225.999 C 211.234 226.036,211.015 228.624,210.715 231.750 M245.379 226.791 C 246.193 227.274,247.870 228.268,249.108 228.998 C 251.770 230.571,251.663 230.064,250.076 233.592 L 248.784 236.462 244.683 236.462 L 240.581 236.462 241.935 231.575 C 243.445 226.128,243.514 225.912,243.740 225.912 C 243.829 225.912,244.566 226.307,245.379 226.791 M214.506 228.174 L 216.600 230.101 213.732 233.722 C 212.154 235.714,210.849 237.320,210.830 237.291 C 210.812 237.262,210.901 236.191,211.028 234.911 C 211.155 233.631,211.353 231.396,211.468 229.946 C 211.820 225.509,211.693 225.584,214.506 228.174 M156.075 229.522 C 156.339 229.794,153.884 231.804,153.026 232.020 C 151.792 232.329,149.884 229.252,149.884 226.952 C 149.884 226.607,155.515 228.945,156.075 229.522 M241.770 229.971 C 241.276 231.749,240.776 233.656,240.660 234.209 C 240.310 235.872,240.013 235.632,239.108 232.960 C 238.633 231.558,238.183 230.248,238.106 230.049 C 237.991 229.748,242.354 226.460,242.591 226.670 C 242.633 226.707,242.264 228.193,241.770 229.971 M189.357 227.143 L 190.196 227.153 189.058 230.375 L 187.919 233.596 184.262 230.339 C 182.251 228.547,180.605 227.011,180.605 226.926 C 180.605 226.840,182.386 226.852,184.562 226.952 C 186.738 227.052,188.896 227.138,189.357 227.143 M197.308 227.625 C 197.364 227.675,197.079 228.937,196.676 230.428 L 195.943 233.139 193.352 230.110 L 190.760 227.080 193.984 227.306 C 195.757 227.431,197.253 227.574,197.308 227.625 M229.609 240.729 C 229.580 256.228,229.857 256.040,226.973 242.514 C 224.588 231.331,224.463 230.553,225.006 230.240 C 225.248 230.101,226.346 229.349,227.446 228.570 C 228.546 227.790,229.489 227.153,229.541 227.153 C 229.593 227.153,229.624 233.262,229.609 240.729 M185.195 231.783 C 187.869 234.146,187.913 233.787,184.642 236.288 C 181.548 238.654,181.786 238.860,181.246 233.359 C 181.037 231.226,180.784 229.061,180.684 228.549 L 180.502 227.618 181.722 228.704 C 182.393 229.302,183.956 230.687,185.195 231.783 M193.141 230.569 L 195.519 233.364 193.648 237.270 C 192.619 239.418,191.777 241.218,191.777 241.271 C 191.777 241.323,190.932 243.091,189.901 245.198 L 188.025 249.030 188.209 241.583 L 188.393 234.135 189.498 230.954 C 190.106 229.205,190.639 227.773,190.683 227.773 C 190.728 227.773,191.834 229.031,193.141 230.569 M180.570 232.661 C 180.777 234.837,181.030 237.158,181.132 237.818 L 181.317 239.019 178.443 238.843 C 176.862 238.746,175.527 238.624,175.476 238.573 C 175.336 238.432,179.802 228.723,180.011 228.713 C 180.111 228.708,180.362 230.485,180.570 232.661 M146.998 232.755 C 147.251 233.122,146.955 234.363,145.766 237.932 L 144.201 242.627 142.853 240.520 C 141.333 238.145,141.344 238.855,142.733 232.450 C 143.081 230.841,143.367 229.458,143.367 229.378 C 143.367 229.169,146.599 232.176,146.998 232.755 M238.713 233.521 L 239.858 236.787 238.491 240.116 C 235.964 246.272,236.138 246.106,236.299 242.203 C 236.870 228.348,236.883 228.304,238.713 233.521 M216.781 231.420 C 216.704 231.889,216.410 234.507,216.129 237.238 C 215.847 239.969,215.549 242.413,215.467 242.669 C 215.363 242.991,214.620 242.373,213.060 240.667 L 210.804 238.200 213.780 234.388 C 217.117 230.115,216.972 230.260,216.781 231.420 M234.230 236.157 C 231.460 239.662,230.272 239.604,230.260 235.963 C 230.256 234.698,230.278 234.674,233.126 232.785 L 235.997 230.882 236.092 232.282 C 236.180 233.589,236.058 233.844,234.230 236.157 M251.079 237.543 C 249.883 244.800,249.680 245.111,249.375 240.161 L 249.173 236.878 250.565 233.877 C 251.331 232.227,252.008 230.877,252.068 230.877 C 252.129 230.877,251.684 233.877,251.079 237.543 M222.153 244.338 C 221.997 244.467,216.328 243.742,216.171 243.573 C 216.105 243.502,216.308 241.071,216.622 238.169 C 216.936 235.268,217.204 232.684,217.218 232.428 C 217.232 232.172,218.375 234.725,219.758 238.101 C 221.141 241.477,222.219 244.283,222.153 244.338 M227.016 245.420 C 227.963 249.919,228.681 253.656,228.614 253.724 C 228.503 253.835,224.021 246.617,223.142 244.910 C 222.856 244.355,222.914 243.011,223.414 238.620 C 223.764 235.549,224.061 232.795,224.076 232.500 C 224.108 231.838,224.795 234.857,227.016 245.420 M187.637 240.574 C 187.533 243.860,187.443 247.176,187.438 247.944 C 187.429 249.339,187.426 249.335,184.643 244.375 C 183.111 241.645,181.855 239.309,181.852 239.186 C 181.847 238.983,187.423 234.621,187.707 234.607 C 187.772 234.603,187.741 237.289,187.637 240.574 M148.018 237.235 C 148.793 237.936,148.477 238.635,147.383 238.635 C 146.883 238.635,146.350 238.870,146.152 239.178 C 145.769 239.773,145.761 239.808,146.663 236.928 C 147.124 235.455,147.266 235.238,147.341 235.887 C 147.393 236.339,147.698 236.945,148.018 237.235 M193.802 240.981 C 192.124 247.086,192.474 246.367,190.489 247.793 C 189.314 248.637,188.948 248.788,189.101 248.364 C 189.536 247.166,195.039 235.603,195.133 235.689 C 195.188 235.739,194.589 238.121,193.802 240.981 M248.684 239.022 C 249.116 244.000,249.196 245.151,249.112 245.151 C 249.062 245.151,247.210 243.336,244.996 241.117 L 240.971 237.083 244.743 237.083 L 248.515 237.083 248.684 239.022 M248.327 245.901 C 247.471 246.384,240.689 249.185,240.377 249.185 C 240.211 249.185,240.175 247.299,240.291 244.608 C 240.398 242.091,240.489 239.405,240.492 238.639 L 240.497 237.247 244.681 241.422 C 248.259 244.993,248.787 245.642,248.327 245.901 M209.413 238.899 C 209.052 239.822,205.530 244.778,205.280 244.715 C 204.965 244.635,203.624 241.031,203.589 240.170 C 203.574 239.819,204.179 239.557,205.818 239.205 C 208.495 238.629,209.554 238.540,209.413 238.899 M212.876 241.115 C 214.307 242.702,214.961 243.641,214.693 243.721 C 213.891 243.961,207.752 244.843,206.888 244.842 L 206.019 244.841 208.130 241.749 C 210.662 238.039,210.163 238.105,212.876 241.115 M239.711 244.143 C 239.593 247.172,239.472 249.679,239.443 249.713 C 239.414 249.747,238.530 249.267,237.479 248.647 C 236.007 247.779,235.661 247.444,235.973 247.189 C 236.196 247.007,237.125 245.008,238.037 242.746 C 238.950 240.485,239.748 238.635,239.811 238.635 C 239.875 238.635,239.829 241.113,239.711 244.143 M180.295 239.550 C 180.380 239.562,179.032 240.404,177.298 241.421 L 174.147 243.269 171.475 242.912 C 168.399 242.500,168.402 242.484,171.850 240.577 L 174.244 239.253 177.192 239.391 C 178.813 239.467,180.209 239.539,180.295 239.550 M146.548 242.095 C 145.566 243.759,144.560 243.309,145.148 241.469 L 145.631 239.960 146.351 240.585 C 147.046 241.190,147.053 241.241,146.548 242.095 M181.078 240.264 C 181.008 240.477,180.577 242.607,180.121 244.996 C 179.154 250.059,179.258 249.839,178.360 248.699 C 177.973 248.208,176.937 246.887,176.057 245.763 L 174.457 243.719 177.608 241.815 C 180.950 239.797,181.281 239.649,181.078 240.264 M184.517 245.175 C 187.538 250.644,187.395 250.130,186.113 250.894 C 184.928 251.600,184.529 251.565,181.825 250.521 L 179.787 249.734 180.727 244.974 C 181.244 242.355,181.722 240.268,181.789 240.336 C 181.857 240.404,183.084 242.581,184.517 245.175 M202.712 248.260 C 201.573 249.606,200.608 250.672,200.566 250.631 C 200.524 250.589,201.071 248.342,201.780 245.637 L 203.069 240.719 203.925 243.266 L 204.781 245.814 202.712 248.260 M171.140 243.460 C 172.164 243.580,173.108 243.738,173.236 243.813 C 173.416 243.917,167.406 251.047,167.138 251.047 C 167.104 251.047,167.250 249.407,167.462 247.401 C 167.673 245.396,167.854 243.565,167.864 243.333 C 167.876 243.056,168.122 242.969,168.580 243.078 C 168.964 243.169,170.116 243.341,171.140 243.460 M176.402 246.992 C 177.525 248.431,178.337 249.712,178.206 249.839 C 178.075 249.966,176.948 250.645,175.703 251.348 L 173.439 252.626 170.551 251.901 L 167.664 251.176 170.764 247.687 C 172.470 245.768,173.976 244.237,174.113 244.286 C 174.249 244.335,175.279 245.553,176.402 246.992 M215.055 244.453 C 215.060 244.785,211.565 254.806,211.480 254.702 C 211.113 254.257,206.051 245.916,206.051 245.758 C 206.051 245.642,206.715 245.463,207.525 245.358 C 208.336 245.254,209.697 245.078,210.551 244.969 C 211.404 244.859,212.661 244.661,213.344 244.529 C 215.076 244.193,215.050 244.194,215.055 244.453 M219.788 244.720 C 222.092 244.981,222.057 244.802,220.572 248.665 C 219.258 252.081,218.961 252.477,218.613 251.280 C 218.501 250.896,217.933 249.287,217.351 247.704 C 216.074 244.234,216.070 244.168,217.143 244.363 C 217.611 244.447,218.801 244.608,219.788 244.720 M217.159 248.798 C 217.891 250.803,218.494 252.583,218.497 252.754 C 218.501 252.996,213.538 254.400,212.502 254.450 C 212.381 254.456,213.009 252.366,213.899 249.807 C 214.788 247.247,215.586 245.153,215.671 245.153 C 215.756 245.153,216.426 246.793,217.159 248.798 M223.891 247.269 C 224.522 248.349,224.990 249.276,224.932 249.329 C 224.548 249.682,219.963 252.335,219.894 252.245 C 219.781 252.100,222.535 245.083,222.654 245.210 C 222.704 245.263,223.261 246.190,223.891 247.269 M209.804 252.885 C 210.981 254.675,210.964 254.721,209.232 254.433 C 206.736 254.016,204.787 253.611,204.657 253.480 C 204.520 253.344,205.099 247.121,205.314 246.423 C 205.389 246.178,206.206 247.200,207.175 248.750 C 208.125 250.270,209.309 252.130,209.804 252.885 M204.313 249.828 C 203.862 253.599,203.995 253.446,202.032 252.451 L 200.433 251.641 201.147 250.793 C 203.911 247.512,204.602 246.703,204.642 246.703 C 204.666 246.703,204.518 248.109,204.313 249.828 M191.129 249.819 C 190.786 250.921,190.008 253.421,189.399 255.374 L 188.291 258.926 187.777 257.857 C 186.645 255.504,185.235 252.210,185.322 252.124 C 185.721 251.732,191.596 247.660,191.664 247.728 C 191.712 247.776,191.471 248.717,191.129 249.819 M191.858 258.707 L 191.621 260.936 190.132 260.290 C 189.313 259.935,188.701 259.490,188.772 259.302 C 188.843 259.114,189.583 256.737,190.417 254.020 L 191.932 249.081 192.013 252.779 C 192.058 254.813,191.989 257.481,191.858 258.707 M182.881 251.510 C 183.941 251.914,184.303 252.205,184.199 252.566 C 184.121 252.840,183.676 255.054,183.211 257.486 C 182.746 259.919,182.268 261.908,182.149 261.908 C 182.030 261.908,180.111 259.903,177.884 257.453 L 173.835 252.997 176.354 251.591 C 179.143 250.034,179.022 250.036,182.881 251.510 M223.852 255.287 C 223.279 258.132,222.762 260.507,222.703 260.565 C 222.645 260.624,221.940 258.962,221.138 256.873 C 220.335 254.783,219.789 253.032,219.925 252.982 C 220.060 252.932,221.148 252.277,222.343 251.526 C 223.538 250.775,224.601 250.151,224.705 250.139 C 224.809 250.126,224.426 252.443,223.852 255.287 M227.469 253.134 L 229.049 255.819 226.050 258.786 C 224.400 260.418,223.120 261.544,223.205 261.288 C 223.290 261.032,223.829 258.427,224.403 255.500 C 224.977 252.573,225.546 250.239,225.667 250.313 C 225.789 250.388,226.600 251.657,227.469 253.134 M169.988 252.335 C 171.475 252.702,172.745 253.046,172.811 253.100 C 172.876 253.154,171.555 255.039,169.874 257.287 L 166.818 261.376 166.541 260.324 C 166.370 259.675,166.396 257.955,166.607 255.839 C 166.796 253.952,166.951 252.241,166.951 252.038 C 166.951 251.566,166.817 251.553,169.988 252.335 M202.105 253.102 C 202.995 253.549,203.755 253.940,203.792 253.972 C 203.875 254.041,202.325 263.256,202.211 263.369 C 202.130 263.451,200.131 252.948,200.147 252.521 C 200.160 252.166,200.359 252.225,202.105 253.102 M187.611 258.943 C 187.756 259.521,183.573 261.870,183.147 261.449 C 183.094 261.397,183.436 259.395,183.907 257.000 L 184.763 252.645 186.105 255.470 C 186.844 257.024,187.521 258.587,187.611 258.943 M218.934 256.711 C 218.707 260.743,218.467 263.872,218.378 263.956 C 218.340 263.992,216.896 262.028,215.170 259.591 L 212.031 255.160 213.774 254.769 C 214.732 254.554,216.214 254.200,217.067 253.982 C 217.921 253.764,218.730 253.574,218.866 253.558 C 219.002 253.543,219.032 254.961,218.934 256.711 M173.468 259.469 C 173.620 262.432,173.826 266.811,173.925 269.201 C 174.024 271.590,174.173 274.383,174.256 275.407 C 174.380 276.932,174.341 277.157,174.042 276.649 C 170.901 271.303,166.631 263.234,166.703 262.780 C 166.792 262.213,172.902 253.820,173.097 253.996 C 173.149 254.043,173.316 256.506,173.468 259.469 M177.819 258.050 L 181.619 262.259 179.793 262.090 C 178.789 261.998,177.141 261.849,176.131 261.759 C 175.121 261.670,174.266 261.562,174.232 261.520 C 174.095 261.350,173.751 253.840,173.880 253.840 C 173.956 253.840,175.729 255.734,177.819 258.050 M211.229 255.501 C 211.292 255.564,211.305 257.656,211.258 260.151 L 211.171 264.686 208.094 259.651 C 206.402 256.882,204.974 254.530,204.922 254.426 C 204.825 254.234,211.017 255.289,211.229 255.501 M207.576 259.848 C 211.243 265.796,211.137 265.418,209.077 265.172 C 208.181 265.064,206.425 264.928,205.176 264.869 C 203.926 264.809,202.861 264.712,202.808 264.653 C 202.711 264.544,204.269 254.771,204.383 254.771 C 204.418 254.771,205.854 257.056,207.576 259.848 M222.306 261.478 C 222.475 262.015,222.201 262.368,220.782 263.439 L 219.052 264.746 219.235 260.922 C 219.546 254.447,219.561 254.418,220.930 257.874 C 221.573 259.496,222.192 261.117,222.306 261.478 M217.586 264.734 C 217.301 264.838,215.915 264.999,214.507 265.093 L 211.947 265.263 211.947 260.586 L 211.947 255.908 215.026 260.227 C 217.532 263.744,218.008 264.581,217.586 264.734 M230.316 257.953 C 231.089 259.460,232.292 271.458,231.726 272.023 C 231.655 272.095,229.671 269.974,227.317 267.310 L 223.037 262.467 226.098 259.395 C 229.695 255.784,229.276 255.927,230.316 257.953 M190.826 261.216 C 191.140 261.345,190.587 262.023,188.969 263.494 C 186.209 266.003,186.343 266.063,187.370 262.783 L 188.208 260.109 189.294 260.571 C 189.891 260.826,190.581 261.116,190.826 261.216 M186.620 263.280 C 185.590 266.443,185.679 266.413,184.084 264.138 L 182.818 262.333 185.047 261.372 C 187.774 260.197,187.666 260.066,186.620 263.280 M191.548 270.131 L 191.311 276.027 190.147 273.855 C 189.506 272.661,188.360 270.566,187.600 269.201 L 186.218 266.718 188.920 264.191 L 191.621 261.663 191.703 262.949 C 191.748 263.657,191.678 266.889,191.548 270.131 M180.450 262.811 C 180.949 262.958,180.415 263.438,177.735 265.251 L 174.399 267.508 174.399 265.354 C 174.399 264.170,174.312 262.973,174.205 262.696 C 174.011 262.189,178.639 262.275,180.450 262.811 M181.677 264.874 C 181.467 265.992,181.244 266.953,181.183 267.008 C 180.932 267.233,175.503 267.539,175.720 267.316 C 175.893 267.139,181.844 262.929,182.030 262.851 C 182.046 262.845,181.887 263.755,181.677 264.874 M222.498 266.009 C 222.498 269.547,222.567 269.524,220.530 266.673 L 219.389 265.076 220.866 263.967 C 221.678 263.357,222.378 262.854,222.420 262.849 C 222.463 262.844,222.498 264.266,222.498 266.009 M184.066 264.807 L 185.199 266.441 183.522 266.748 C 182.067 267.015,181.864 266.992,181.983 266.577 C 182.059 266.313,182.215 265.434,182.329 264.624 C 182.588 262.789,182.672 262.798,184.066 264.807 M226.218 266.922 C 226.220 267.034,225.524 267.711,224.670 268.425 L 223.119 269.724 223.132 266.515 L 223.146 263.305 224.680 265.012 C 225.524 265.950,226.217 266.810,226.218 266.922 M167.562 265.992 C 167.567 266.105,168.156 267.222,168.870 268.475 C 171.117 272.418,174.395 278.464,174.318 278.523 C 174.277 278.555,172.708 278.397,170.830 278.173 C 168.953 277.948,167.242 277.758,167.029 277.750 C 166.731 277.738,166.641 276.205,166.641 271.159 C 166.641 265.310,166.691 264.649,167.096 265.185 C 167.347 265.516,167.556 265.880,167.562 265.992 M205.299 265.707 C 205.459 265.868,204.194 269.726,203.861 270.094 C 203.598 270.384,203.112 268.841,202.758 266.594 L 202.543 265.228 203.857 265.404 C 204.580 265.501,205.229 265.637,205.299 265.707 M218.568 267.261 C 218.238 270.529,218.359 270.499,215.088 268.111 L 212.177 265.986 213.226 265.809 C 213.803 265.712,214.973 265.588,215.826 265.533 C 216.680 265.479,217.690 265.409,218.071 265.378 C 218.740 265.324,218.758 265.392,218.568 267.261 M209.788 265.883 L 210.888 266.098 210.249 268.215 L 209.611 270.333 207.970 267.983 L 206.329 265.632 207.509 265.650 C 208.158 265.660,209.184 265.765,209.788 265.883 M206.982 267.414 C 207.409 268.048,208.016 268.954,208.331 269.427 L 208.905 270.287 206.730 270.287 L 204.556 270.287 205.212 268.270 C 205.978 265.912,205.974 265.915,206.982 267.414 M214.226 268.091 C 218.461 271.166,218.320 270.933,215.826 270.738 C 209.682 270.259,210.139 270.500,210.861 268.117 C 211.541 265.871,211.173 265.874,214.226 268.091 M221.077 268.255 C 222.460 270.262,222.507 270.104,220.393 270.509 L 218.753 270.823 218.943 268.926 C 219.270 265.667,219.291 265.661,221.077 268.255 M184.094 271.140 C 183.342 273.487,182.473 276.106,182.163 276.959 L 181.601 278.510 179.474 278.515 C 178.304 278.518,176.961 278.448,176.490 278.360 L 175.633 278.200 178.820 272.939 C 182.183 267.385,182.429 267.150,185.129 266.904 C 185.312 266.887,184.847 268.794,184.094 271.140 M187.903 270.753 C 188.897 272.630,189.965 274.585,190.277 275.097 C 191.116 276.476,191.004 276.684,189.216 277.066 C 188.320 277.257,186.435 277.673,185.027 277.990 C 183.619 278.306,182.467 278.436,182.467 278.277 C 182.467 277.882,185.935 267.129,186.024 267.246 C 186.063 267.297,186.909 268.875,187.903 270.753 M229.418 270.337 L 231.787 273.025 230.691 275.457 C 230.088 276.795,229.434 278.274,229.237 278.743 C 228.856 279.650,228.394 279.882,228.394 279.167 C 228.394 278.569,227.186 269.408,226.957 268.270 C 226.854 267.758,226.833 267.409,226.910 267.494 C 226.987 267.580,228.116 268.859,229.418 270.337 M180.424 269.279 C 179.951 270.089,178.555 272.402,177.321 274.419 L 175.078 278.085 174.904 275.505 C 174.808 274.086,174.666 271.849,174.589 270.535 L 174.449 268.144 176.208 268.033 C 177.176 267.972,178.714 267.895,179.626 267.863 L 181.285 267.804 180.424 269.279 M226.466 268.658 C 226.562 269.852,227.753 278.646,227.952 279.637 C 228.145 280.595,222.180 287.761,221.428 287.473 C 220.810 287.236,214.882 280.151,214.985 279.773 C 215.035 279.590,215.873 277.664,216.847 275.492 L 218.619 271.542 223.274 276.112 L 227.929 280.683 223.444 276.116 C 220.977 273.605,219.022 271.497,219.099 271.431 C 219.177 271.366,220.052 271.154,221.044 270.961 C 222.471 270.684,223.185 270.316,224.453 269.207 C 226.337 267.559,226.376 267.548,226.466 268.658 M208.832 275.019 C 207.390 281.767,207.236 282.437,207.145 282.333 C 207.097 282.279,206.406 279.930,205.609 277.114 C 204.812 274.298,204.087 271.749,203.999 271.451 C 203.853 270.960,204.122 270.908,206.774 270.908 L 209.710 270.908 208.832 275.019 M216.390 271.418 C 217.611 271.560,217.850 271.686,217.695 272.103 C 216.289 275.888,214.119 280.079,214.119 279.011 C 214.119 278.859,213.440 277.288,212.610 275.520 C 210.128 270.232,209.747 270.645,216.390 271.418 M213.572 279.011 C 213.740 279.465,208.407 282.367,208.054 282.013 C 207.958 281.917,208.255 280.436,209.672 273.953 L 210.194 271.567 211.790 275.039 C 212.668 276.948,213.470 278.736,213.572 279.011 M232.707 286.881 C 232.745 289.087,232.733 289.075,230.259 284.368 L 228.608 281.227 230.011 278.304 C 230.783 276.697,231.534 275.039,231.681 274.619 C 231.938 273.887,232.624 282.100,232.707 286.881 M190.694 282.152 C 189.970 288.319,189.898 288.406,187.176 286.371 C 186.037 285.519,185.105 284.715,185.105 284.585 C 185.105 284.267,190.966 277.189,191.125 277.315 C 191.193 277.370,190.999 279.546,190.694 282.152 M188.160 279.984 C 186.994 281.393,185.679 282.940,185.237 283.424 L 184.433 284.304 183.943 282.959 C 182.420 278.783,182.312 279.143,185.269 278.526 C 186.544 278.260,188.006 277.915,188.518 277.760 C 190.301 277.219,190.266 277.440,188.160 279.984 M172.260 278.935 L 174.361 279.131 172.285 281.449 C 171.144 282.724,169.779 284.246,169.254 284.831 L 168.298 285.895 167.624 282.513 C 166.720 277.972,166.654 278.256,168.555 278.518 C 169.437 278.639,171.104 278.827,172.260 278.935 M181.177 279.444 C 181.237 279.504,180.456 280.822,179.442 282.372 L 177.597 285.190 176.435 282.471 C 175.796 280.975,175.193 279.556,175.095 279.318 C 174.933 278.921,180.775 279.043,181.177 279.444 M182.933 281.771 C 183.359 283.022,183.637 284.116,183.551 284.202 C 183.299 284.454,178.407 285.100,178.502 284.868 C 178.726 284.321,181.987 279.323,182.068 279.404 C 182.118 279.455,182.508 280.520,182.933 281.771 M175.784 282.364 C 177.121 285.486,177.414 285.160,172.969 285.495 C 168.754 285.813,168.935 285.850,169.834 284.857 C 170.213 284.439,171.416 283.082,172.509 281.843 C 173.601 280.604,174.535 279.630,174.584 279.678 C 174.633 279.727,175.173 280.936,175.784 282.364 M217.691 284.101 C 220.553 287.521,221.155 287.475,212.640 284.483 L 207.902 282.818 210.933 281.356 L 213.964 279.894 215.050 281.069 C 215.648 281.715,216.836 283.080,217.691 284.101 M230.406 285.758 C 231.540 287.866,232.424 289.631,232.370 289.679 C 232.190 289.843,222.343 288.113,222.343 287.917 C 222.343 287.811,222.692 287.326,223.119 286.839 C 226.972 282.443,227.911 281.473,228.112 281.682 C 228.239 281.815,229.271 283.649,230.406 285.758 M221.184 287.975 C 221.408 287.975,219.245 289.603,215.249 292.442 C 213.395 293.759,211.842 294.794,211.798 294.742 C 211.684 294.606,207.603 283.651,207.603 283.481 C 207.603 283.403,210.622 284.382,214.312 285.657 C 218.003 286.932,221.095 287.975,221.184 287.975 M183.902 285.415 C 183.815 285.714,183.576 286.866,183.370 287.975 C 183.165 289.085,182.953 290.045,182.900 290.109 C 182.846 290.173,181.746 289.280,180.455 288.125 C 177.738 285.693,177.724 285.797,180.845 285.316 C 184.172 284.803,184.081 284.800,183.902 285.415 M186.529 286.469 C 188.804 288.064,189.028 287.712,184.480 289.688 L 183.545 290.095 184.014 287.639 C 184.273 286.288,184.532 285.183,184.590 285.183 C 184.648 285.182,185.521 285.761,186.529 286.469 M176.771 286.265 C 176.673 286.519,176.500 287.429,176.386 288.289 C 176.110 290.368,176.140 290.366,173.029 288.466 C 169.736 286.454,169.721 286.315,172.766 286.093 C 177.149 285.773,176.962 285.765,176.771 286.265 M182.073 290.335 C 182.019 290.389,180.744 290.526,179.239 290.640 L 176.504 290.847 176.682 289.954 C 176.780 289.463,176.953 288.503,177.067 287.820 C 177.180 287.137,177.335 286.471,177.410 286.339 C 177.486 286.207,178.588 287.029,179.859 288.167 C 181.131 289.305,182.127 290.281,182.073 290.335 M172.477 288.728 C 174.754 290.096,174.794 290.323,172.645 289.685 C 171.481 289.339,170.834 288.897,170.037 287.902 C 169.113 286.747,169.076 286.641,169.749 287.065 C 170.173 287.332,171.401 288.080,172.477 288.728 M188.661 290.539 C 188.375 294.032,188.305 294.073,185.598 292.320 L 183.298 290.832 185.122 289.998 C 186.125 289.539,187.369 288.977,187.887 288.750 C 188.405 288.522,188.832 288.325,188.837 288.311 C 188.841 288.297,188.762 289.300,188.661 290.539 M227.386 289.563 C 229.818 289.955,231.807 290.351,231.806 290.444 C 231.804 290.653,227.068 293.440,226.924 293.317 C 226.867 293.268,226.617 293.432,226.367 293.681 C 226.118 293.931,225.163 294.564,224.245 295.089 L 222.576 296.044 217.727 295.518 C 215.060 295.229,212.884 294.915,212.892 294.820 C 212.939 294.204,221.489 288.586,222.188 288.711 C 222.614 288.788,224.953 289.171,227.386 289.563 M173.097 290.406 C 175.764 291.152,176.262 290.558,166.971 297.717 C 166.726 297.906,167.494 296.211,168.678 293.950 C 169.861 291.689,170.900 289.844,170.985 289.849 C 171.071 289.855,172.021 290.105,173.097 290.406 M182.157 291.185 C 182.157 291.265,180.830 293.386,179.209 295.896 L 176.261 300.462 176.261 295.945 L 176.261 291.428 177.269 291.331 C 179.383 291.127,182.157 291.044,182.157 291.185 M185.409 292.748 L 187.478 294.107 186.602 294.700 C 186.120 295.026,184.972 295.691,184.052 296.177 L 182.378 297.061 182.593 294.768 C 182.961 290.852,182.752 291.002,185.409 292.748 M230.857 292.552 C 230.510 293.239,230.122 295.044,229.910 296.954 L 229.552 300.192 228.507 297.304 C 227.933 295.715,227.466 294.258,227.470 294.066 C 227.474 293.815,230.812 291.550,231.394 291.402 C 231.422 291.395,231.181 291.912,230.857 292.552 M175.502 300.940 C 175.416 301.026,174.190 301.107,172.778 301.120 C 169.894 301.147,166.035 299.288,167.015 298.344 C 167.236 298.131,169.232 296.559,171.451 294.849 L 175.485 291.741 175.571 296.263 C 175.618 298.750,175.587 300.855,175.502 300.940 M181.984 295.070 C 181.844 296.493,181.592 297.409,181.265 297.689 C 180.335 298.482,177.088 300.186,177.353 299.741 C 178.768 297.370,181.954 292.634,182.062 292.742 C 182.138 292.818,182.103 293.865,181.984 295.070 M224.728 298.836 C 223.138 303.630,222.808 304.065,222.808 301.362 C 222.808 300.362,222.722 298.917,222.617 298.151 L 222.427 296.758 224.247 295.633 C 225.248 295.015,226.089 294.505,226.117 294.500 C 226.145 294.496,225.520 296.447,224.728 298.836 M186.320 298.481 C 185.132 301.863,185.124 301.876,183.466 302.867 C 181.412 304.096,181.476 304.178,181.878 300.832 C 182.264 297.617,182.076 297.896,185.002 296.213 C 187.827 294.588,187.740 294.438,186.320 298.481 M228.078 297.517 C 229.294 300.639,229.402 302.495,228.563 305.916 C 228.277 307.085,227.947 308.996,227.830 310.164 L 227.618 312.288 225.463 309.059 C 224.278 307.283,223.300 305.617,223.291 305.358 C 223.268 304.726,226.600 294.802,226.835 294.802 C 226.936 294.802,227.496 296.024,228.078 297.517 M217.067 296.037 C 218.774 296.213,220.529 296.385,220.968 296.419 C 221.693 296.474,215.211 306.209,214.408 306.270 C 214.311 306.278,213.983 304.922,213.679 303.258 C 213.374 301.594,212.933 299.185,212.697 297.905 C 212.462 296.625,212.267 295.532,212.264 295.476 C 212.260 295.420,212.642 295.451,213.111 295.545 C 213.580 295.639,215.361 295.860,217.067 296.037 M212.711 301.103 C 213.183 303.629,213.488 305.778,213.388 305.877 C 213.191 306.074,209.155 303.543,209.154 303.222 C 209.152 302.442,211.482 295.785,211.646 296.104 C 211.759 296.327,212.239 298.576,212.711 301.103 M222.181 300.337 C 222.225 301.645,222.280 303.127,222.302 303.631 L 222.343 304.547 218.852 305.370 C 216.932 305.823,215.361 306.128,215.361 306.047 C 215.361 305.966,216.102 304.905,217.009 303.687 C 217.915 302.470,219.342 300.537,220.180 299.393 C 221.923 297.010,222.072 297.080,222.181 300.337 M181.420 299.690 C 181.321 300.500,181.145 302.002,181.029 303.026 C 180.887 304.279,180.461 305.537,179.727 306.873 L 178.635 308.859 177.322 305.166 C 176.599 303.136,176.100 301.386,176.212 301.279 C 176.324 301.172,177.254 300.628,178.278 300.070 C 179.302 299.513,180.415 298.867,180.752 298.636 C 181.615 298.043,181.621 298.053,181.420 299.690 M165.574 302.870 C 165.228 306.168,164.973 306.346,164.602 303.547 C 164.443 302.346,164.538 301.778,165.078 300.721 C 165.961 298.989,165.975 299.051,165.574 302.870 M169.711 301.290 C 170.045 301.490,169.660 302.128,168.032 304.073 C 166.870 305.461,165.884 306.561,165.841 306.518 C 165.746 306.422,166.300 301.137,166.509 300.143 L 166.659 299.432 167.969 300.231 C 168.689 300.671,169.473 301.147,169.711 301.290 M175.022 301.862 C 175.028 302.456,172.390 309.176,172.311 308.766 C 171.244 303.229,171.110 301.961,171.586 301.865 C 172.666 301.646,175.020 301.644,175.022 301.862 M170.999 304.655 C 171.225 305.978,171.426 307.130,171.448 307.215 C 171.470 307.300,171.596 307.964,171.729 308.689 C 172.152 310.995,172.620 310.479,174.264 305.896 C 175.722 301.835,175.590 301.839,176.957 305.817 L 178.075 309.073 176.315 309.561 C 175.346 309.830,174.149 310.180,173.654 310.339 C 173.159 310.498,172.489 310.628,172.164 310.628 C 171.680 310.628,165.812 308.313,165.447 307.978 C 165.302 307.845,170.124 302.250,170.384 302.250 C 170.497 302.250,170.774 303.332,170.999 304.655 M211.482 305.466 C 212.506 306.138,213.396 306.731,213.461 306.784 C 213.525 306.837,213.368 307.549,213.111 308.367 C 212.853 309.184,212.252 311.179,211.773 312.801 C 211.295 314.422,210.868 315.798,210.824 315.859 C 210.780 315.920,209.993 315.384,209.076 314.667 L 207.409 313.365 207.818 310.678 C 208.791 304.283,208.896 303.797,209.260 304.022 C 209.458 304.144,210.458 304.794,211.482 305.466 M220.843 310.277 L 219.564 315.202 217.044 311.131 L 214.524 307.060 217.813 306.235 C 219.622 305.782,221.331 305.398,221.611 305.382 C 222.049 305.357,221.941 306.045,220.843 310.277 M225.931 310.639 L 227.674 313.287 223.949 314.596 C 221.900 315.316,220.173 315.854,220.110 315.792 C 220.048 315.730,220.478 313.879,221.066 311.679 C 221.653 309.480,222.230 307.214,222.347 306.645 L 222.559 305.609 223.373 306.800 C 223.821 307.455,224.972 309.182,225.931 310.639 M216.799 311.650 L 219.324 315.749 215.403 315.904 C 213.246 315.989,211.456 316.057,211.425 316.054 C 211.394 316.052,211.944 314.132,212.647 311.787 C 213.350 309.443,214.003 307.531,214.100 307.538 C 214.196 307.545,215.411 309.396,216.799 311.650 "
        ></path>
    </g>
</svg>