<?xml version="1.0" standalone="no"?>
<!DOCTYPE svg PUBLIC "-//W3C//DTD SVG 20010904//EN"
 "http://www.w3.org/TR/2001/REC-SVG-20010904/DTD/svg10.dtd">
<svg version="1.0" xmlns="http://www.w3.org/2000/svg"
 width="720.000000pt" height="360.000000pt" viewBox="0 0 720.000000 360.000000"
 preserveAspectRatio="xMidYMid meet">

<g transform="translate(0.000000,360.000000) scale(0.100000,-0.100000)"
fill="#000000" stroke="none">
<path fill="#29c27f" d="M2760 3459 c-141 -15 -181 -17 -282 -18 -60 0 -98 -5 -98 -11 0 -5
-17 -10 -37 -11 -21 -1 -49 -5 -63 -9 -25 -8 -25 -8 -2 -9 48 -2 9 -19 -59
-26 -71 -7 -80 -23 -14 -26 29 -1 29 -1 5 -8 l-25 -7 25 -7 c14 -4 62 -7 106
-7 49 0 96 -6 117 -15 35 -15 70 -52 62 -65 -3 -4 14 -11 38 -15 33 -7 37 -9
17 -12 -48 -8 -57 -13 -37 -24 9 -6 22 -7 27 -4 5 3 19 8 29 10 14 3 18 -1 14
-11 -3 -8 -13 -14 -23 -14 -10 0 -23 -6 -29 -14 -9 -11 -3 -25 29 -65 46 -58
83 -86 105 -78 8 4 17 2 20 -3 4 -6 17 -10 29 -10 17 0 27 9 36 30 7 17 16 30
21 30 5 0 14 11 19 25 8 20 16 25 43 25 19 0 54 11 78 24 25 13 71 26 103 30
32 4 74 14 94 21 l37 14 -32 0 c-24 1 -31 5 -27 16 5 11 11 12 24 5 26 -14 67
-13 53 1 -16 16 -4 47 21 53 30 7 33 46 3 46 -22 1 -22 1 -3 15 18 14 15 19
-9 16 -5 -1 -1 6 10 15 11 8 19 19 18 24 -2 5 10 9 25 9 15 -1 52 6 82 15 l55
15 -97 -2 c-53 -1 -94 0 -92 3 3 2 -15 10 -38 17 -55 17 -267 24 -378 12z"/>
<path fill="#29c27f" d="M1996 3453 c-6 -6 -62 -10 -166 -13 l-55 -1 34 -15 c19 -8 39 -14 45
-13 6 1 31 0 56 -1 l45 -3 -45 -6 c-25 -4 -67 -1 -95 6 -66 17 -107 16 -131
-2 -15 -11 -16 -15 -4 -16 26 -3 34 -6 64 -18 16 -6 46 -9 67 -7 28 4 39 1 39
-8 0 -14 -42 -26 -87 -26 -21 0 -22 -3 -13 -20 10 -18 21 -20 130 -20 68 0
121 4 125 10 4 6 -30 10 -94 10 -62 0 -101 4 -101 10 0 6 37 10 98 9 124 -2
133 -1 130 13 -2 6 13 15 32 19 19 4 36 12 38 18 2 6 17 11 33 11 16 0 37 4
47 9 9 5 54 18 99 27 46 10 80 20 77 23 -7 7 -360 11 -368 4z m-96 -73 c-8 -5
-19 -10 -25 -10 -5 0 -3 5 5 10 8 5 20 10 25 10 6 0 3 -5 -5 -10z"/>
<path fill="#29c27f" d="M4715 3419 c-28 -8 -27 -8 8 -4 25 3 35 0 31 -7 -4 -7 -2 -8 5 -4 6
4 9 12 6 17 -7 10 -8 10 -50 -2z"/>
<path fill="#29c27f" d="M4598 3413 c7 -3 16 -2 19 1 4 3 -2 6 -13 5 -11 0 -14 -3 -6 -6z"/>
<path fill="#29c27f" d="M4808 3413 c6 -2 18 -2 25 0 6 3 1 5 -13 5 -14 0 -19 -2 -12 -5z"/>
<path fill="#29c27f" d="M4868 3413 c6 -2 18 -2 25 0 6 3 1 5 -13 5 -14 0 -19 -2 -12 -5z"/>
<path fill="#29c27f" d="M5444 3405 c-19 -15 -19 -16 1 -13 11 1 25 0 30 -4 6 -3 33 -9 61
-13 42 -5 52 -4 57 9 5 12 0 16 -23 16 -17 0 -30 5 -30 10 0 16 -74 12 -96 -5z"/>
<path fill="#29c27f" d="M3978 3399 c-7 -5 -23 -6 -35 -2 -13 3 -23 1 -23 -4 0 -5 -15 -7 -34
-5 -67 8 -71 -2 -14 -32 l56 -29 32 23 c30 21 34 22 63 8 18 -8 39 -13 47 -10
9 4 -8 13 -40 24 l-55 18 61 -5 c33 -3 71 -1 85 4 22 9 20 10 -16 11 -22 1
-57 2 -77 4 -20 2 -43 -1 -50 -5z"/>
<path fill="#29c27f" d="M4558 3403 c7 -3 16 -2 19 1 4 3 -2 6 -13 5 -11 0 -14 -3 -6 -6z"/>
<path fill="#29c27f" d="M1517 3373 c-3 -5 4 -10 16 -10 12 -1 38 -5 57 -8 26 -5 32 -4 24 5
-15 15 -90 25 -97 13z"/>
<path fill="#29c27f" d="M5605 3370 c-4 -6 13 -10 45 -10 32 0 49 4 45 10 -3 6 -24 10 -45 10
-21 0 -42 -4 -45 -10z"/>
<path fill="#29c27f" d="M1357 3363 c-9 -2 -15 -8 -12 -12 6 -10 53 -2 61 10 5 9 -18 10 -49
2z"/>
<path fill="#29c27f" d="M1650 3360 c20 -13 50 -13 50 0 0 6 -15 10 -32 10 -25 0 -29 -3 -18
-10z"/>
<path fill="#29c27f" d="M1185 3334 c-25 -8 -32 -13 -20 -14 11 -1 31 -3 45 -4 26 -3 70 12
70 24 0 11 -52 8 -95 -6z"/>
<path fill="#29c27f" d="M5615 3336 c-16 -7 -73 -16 -125 -20 -108 -7 -156 -18 -152 -35 1 -7
-20 -11 -63 -11 -70 0 -85 -14 -35 -31 17 -6 30 -18 30 -27 0 -14 -1 -14 -12
1 -22 29 -140 44 -122 16 3 -5 -2 -9 -10 -9 -9 0 -16 6 -16 14 0 9 -7 12 -19
9 -14 -3 -19 -12 -17 -30 2 -14 7 -28 12 -31 19 -15 12 -31 -22 -47 -43 -20
-55 -14 -19 9 20 13 24 21 16 30 -6 7 -12 28 -14 46 -4 51 -27 59 -71 24 -42
-34 -45 -46 -13 -63 20 -10 18 -11 -13 -5 -19 3 -60 9 -90 13 -30 5 -64 11
-75 15 -15 5 -14 4 3 -5 27 -15 29 -33 3 -26 -11 2 -39 1 -63 -3 -23 -5 -45
-4 -48 1 -6 9 -92 -11 -128 -30 -15 -8 -28 -9 -40 -2 -16 10 -16 10 1 11 10 0
15 5 12 10 -3 6 -15 10 -26 10 -15 0 -19 -6 -17 -21 2 -18 -3 -22 -31 -24 -19
-2 -40 -11 -47 -20 -9 -12 -21 -15 -46 -11 -18 3 -27 3 -20 0 6 -3 12 -10 12
-15 0 -13 -33 2 -57 27 l-23 23 73 -2 c138 -4 69 44 -86 59 -40 4 -63 10 -56
15 17 10 -39 16 -74 7 -19 -5 -25 -3 -21 4 5 8 1 9 -12 4 -25 -10 -68 -17
-142 -25 -7 0 -10 -6 -6 -12 5 -9 -1 -10 -20 -5 -16 4 -25 3 -22 -2 9 -15 -99
-95 -151 -114 -39 -13 -49 -21 -51 -43 -6 -51 22 -63 94 -40 28 9 62 -38 43
-61 -11 -13 -8 -14 17 -8 56 14 74 24 74 42 0 11 12 24 28 31 l27 13 -22 15
c-30 20 -16 47 32 63 19 6 35 18 35 26 0 10 12 14 43 14 l42 0 -43 -28 c-34
-21 -42 -32 -40 -52 3 -24 6 -25 70 -25 36 0 69 -3 74 -7 4 -5 -16 -8 -44 -8
-49 0 -73 -12 -52 -25 21 -13 9 -25 -22 -23 -28 3 -34 -1 -36 -19 -2 -14 -12
-25 -25 -27 -12 -2 -43 -8 -70 -14 -27 -5 -50 -6 -53 -1 -3 5 -16 6 -30 3 -34
-9 -57 12 -41 36 15 25 4 35 -23 20 -14 -8 -19 -17 -15 -28 12 -31 10 -35 -22
-42 -17 -4 -43 -17 -58 -29 -15 -11 -32 -21 -37 -21 -5 0 -18 -9 -30 -19 -11
-11 -26 -17 -34 -14 -8 3 -14 0 -14 -6 0 -6 -13 -11 -30 -11 -16 0 -30 -4 -30
-10 0 -5 8 -10 18 -10 30 0 57 -36 46 -61 -9 -19 -19 -22 -79 -23 l-70 -1 -2
-30 c-1 -16 -3 -37 -4 -45 -5 -36 2 -50 24 -50 13 0 27 -4 33 -9 10 -10 70 -1
97 15 10 6 19 19 21 30 1 10 17 28 34 39 17 11 33 28 36 38 4 15 11 18 36 12
21 -5 39 -2 55 9 23 15 26 14 52 -10 15 -14 45 -35 66 -45 21 -11 42 -30 47
-42 8 -20 10 -18 14 16 1 6 10 11 21 10 13 -1 11 2 -7 10 -16 6 -28 14 -28 19
0 4 -6 8 -13 8 -17 0 -57 42 -57 59 0 15 41 4 52 -14 4 -6 25 -20 48 -30 24
-11 40 -25 40 -35 0 -10 7 -24 16 -31 9 -7 20 -23 25 -36 10 -26 29 -31 29 -7
0 8 5 12 10 9 15 -9 12 2 -7 32 -10 15 -12 24 -6 20 7 -5 21 -4 30 1 23 12 43
5 36 -14 -3 -8 0 -14 7 -14 6 0 9 -4 6 -9 -3 -4 4 -17 15 -27 17 -15 36 -19
95 -18 69 1 74 -1 73 -20 0 -12 -8 -34 -18 -51 -16 -27 -23 -30 -77 -32 -60
-2 -150 13 -170 28 -17 13 -44 0 -54 -26 -8 -21 -11 -22 -43 -11 -19 6 -41 17
-49 23 -7 7 -26 14 -41 17 -45 8 -67 17 -67 27 0 5 4 9 9 9 5 0 8 12 7 26 l-1
26 -90 -5 c-50 -3 -108 -13 -130 -22 -24 -11 -54 -15 -77 -12 -31 4 -40 1 -48
-14 -6 -10 -17 -19 -25 -19 -18 0 -49 -45 -41 -59 7 -11 -32 -51 -50 -51 -7 0
-31 -28 -54 -62 -33 -50 -40 -67 -34 -88 4 -14 7 -38 6 -55 -6 -107 -6 -105
32 -144 20 -20 36 -41 36 -47 0 -6 20 -24 44 -41 40 -29 48 -30 115 -27 39 2
96 11 128 20 57 17 57 17 76 -7 13 -16 27 -23 46 -21 41 5 54 -17 42 -69 -10
-44 -4 -65 24 -89 19 -16 57 -99 49 -111 -3 -5 0 -18 6 -29 9 -16 8 -25 0 -35
-6 -8 -18 -35 -26 -61 -14 -46 -13 -48 15 -94 16 -26 32 -69 36 -98 4 -28 13
-56 21 -63 18 -15 47 -76 49 -102 2 -23 25 -39 45 -31 8 4 42 9 75 12 56 4 62
8 113 59 30 32 55 67 59 85 4 19 14 33 29 39 26 9 30 32 14 73 -8 23 -5 28 31
53 85 59 83 56 80 109 -1 27 -6 53 -10 59 -16 19 -22 95 -10 118 20 37 73 95
117 126 45 33 112 138 112 177 0 20 -3 23 -17 15 -33 -17 -112 -24 -128 -11
-8 7 -13 16 -10 20 3 5 -15 25 -40 45 -25 21 -45 42 -45 47 0 5 -9 21 -20 35
-11 14 -20 36 -20 48 0 12 -7 28 -15 35 -8 7 -15 16 -15 21 0 4 -13 31 -30 59
-16 28 -30 54 -30 58 0 4 5 -1 11 -10 5 -10 18 -18 27 -18 10 0 25 -12 34 -27
9 -16 26 -39 37 -52 12 -13 21 -30 21 -38 0 -7 18 -36 40 -64 24 -30 40 -62
40 -77 0 -54 11 -57 91 -27 41 15 81 33 89 40 8 7 32 20 52 30 20 9 53 36 72
60 38 45 36 55 -11 69 -15 5 -23 15 -23 28 l0 21 -23 -21 c-32 -30 -77 -30
-77 1 0 17 -2 19 -10 7 -7 -12 -10 -11 -16 5 -4 11 -16 31 -26 44 -23 30 -23
41 2 41 11 0 27 -11 35 -24 19 -29 67 -50 97 -43 14 4 26 0 34 -11 10 -14 30
-17 99 -18 74 -2 89 -5 106 -23 11 -12 24 -21 29 -21 6 0 10 -6 10 -14 0 -7 7
-20 16 -27 14 -11 18 -10 30 6 8 10 14 17 15 14 0 -2 2 -24 5 -49 5 -42 66
-203 85 -224 12 -14 59 44 60 74 1 14 0 35 -1 48 -1 12 3 22 8 22 10 0 65 45
118 96 12 12 33 24 46 27 12 3 33 9 46 12 14 5 22 3 22 -5 0 -6 12 -27 26 -46
16 -20 24 -42 21 -53 -5 -21 18 -37 28 -21 23 38 55 -25 55 -108 0 -29 7 -53
20 -69 11 -14 20 -34 20 -45 0 -20 42 -68 59 -68 19 0 -1 65 -28 90 -50 49
-61 74 -48 111 15 45 14 43 30 28 8 -8 29 -25 46 -39 17 -14 31 -31 31 -38 0
-9 10 -5 30 11 16 14 35 27 42 29 6 2 12 21 12 41 0 29 -8 45 -37 75 l-38 38
21 27 c13 16 31 27 45 27 25 0 28 -18 7 -43 -10 -12 -10 -17 -1 -23 15 -9 40
23 32 41 -5 14 53 45 83 45 8 0 29 10 47 21 39 26 107 121 90 126 -6 2 -9 13
-6 23 3 10 -4 32 -16 49 -12 16 -21 32 -21 35 0 4 15 16 33 27 l32 21 -34 -5
c-22 -2 -41 2 -52 11 -17 14 -15 16 17 34 42 22 55 23 47 2 -5 -13 -2 -15 18
-9 13 4 26 7 29 7 24 0 31 -4 27 -16 -3 -8 1 -17 9 -20 8 -3 14 -19 14 -37 0
-28 3 -31 23 -25 12 3 25 6 30 6 15 0 6 48 -13 65 -23 20 -26 35 -8 35 7 0 22
12 34 27 15 19 32 27 59 29 32 3 49 14 97 61 32 32 58 65 58 74 0 27 11 49 21
43 5 -3 9 -30 9 -59 0 -45 3 -53 15 -49 13 5 13 9 3 21 -10 12 -9 18 6 28 13
10 16 19 10 37 -9 24 -11 32 -13 58 -1 12 -5 11 -16 -4 -15 -19 -15 -19 -29
-1 -9 12 -20 16 -35 12 -12 -3 -33 0 -47 8 -24 12 -24 13 48 56 l73 44 122 -1
c68 -1 121 2 118 6 -7 11 34 36 67 42 17 3 32 0 39 -9 10 -11 17 -10 46 7 41
24 47 25 36 5 -5 -8 -27 -25 -48 -36 -22 -12 -52 -27 -66 -35 -14 -8 -34 -23
-44 -34 -16 -17 -16 -24 -5 -65 14 -49 23 -55 42 -25 7 11 18 20 24 20 7 0 14
7 18 15 3 8 12 15 21 15 8 0 15 7 15 15 0 8 6 15 14 15 9 0 12 7 9 20 -3 11
-9 17 -14 14 -15 -9 -10 6 9 26 14 15 35 21 88 24 38 2 97 13 131 25 34 12 75
21 90 21 l28 1 -23 19 -22 19 22 3 c19 2 24 10 26 44 4 50 1 52 -110 60 -57 5
-79 4 -74 -4 3 -6 2 -13 -3 -16 -11 -7 -42 4 -37 13 2 3 -34 4 -80 2 -68 -2
-86 0 -100 14 -14 14 -30 16 -78 13 -38 -3 -77 1 -104 10 -23 8 -56 12 -72 10
-17 -3 -30 -1 -30 4 0 12 -104 10 -117 -3 -7 -7 -39 -11 -78 -10 -37 1 -73 -3
-80 -9 -17 -14 -65 7 -58 26 6 17 20 16 -177 21 -91 2 -172 5 -180 5 -8 0 -31
-2 -50 -6 -19 -3 -6 4 30 16 36 11 67 22 69 24 11 10 -16 19 -72 26 -34 3 -82
9 -107 12 -28 3 -57 0 -75 -8z m-460 -166 c3 -5 2 -10 -4 -10 -5 0 -13 5 -16
10 -3 6 -2 10 4 10 5 0 13 -4 16 -10z m-795 -451 c-7 -11 -10 -22 -8 -23 2 -1
20 -13 41 -25 21 -13 36 -28 34 -35 -5 -16 -65 -20 -109 -7 -28 9 -49 8 -94
-4 -65 -17 -85 -19 -65 -6 9 6 10 11 2 15 -13 9 0 37 34 74 17 18 28 22 48 17
15 -4 25 -11 22 -15 -9 -14 13 -21 42 -14 24 7 25 8 8 15 -19 6 -18 8 5 17 42
18 52 15 40 -9z m300 6 c0 -8 -6 -15 -14 -15 -7 0 -18 -6 -24 -12 -12 -15 24
-63 47 -63 8 0 16 -6 19 -12 2 -7 -4 -13 -13 -13 -12 0 -14 -4 -5 -19 5 -11
10 -29 10 -40 0 -24 -33 -28 -75 -9 -27 12 -30 24 -15 48 7 11 2 22 -15 40
-38 40 -36 69 5 91 42 23 80 25 80 4z"/>
<path fill="#29c27f" d="M1680 3330 c20 -13 50 -13 50 0 0 6 -15 10 -32 10 -25 0 -29 -3 -18
-10z"/>
<path fill="#29c27f" d="M3215 3330 c3 -5 8 -10 11 -10 2 0 4 5 4 10 0 6 -5 10 -11 10 -5 0
-7 -4 -4 -10z"/>
<path fill="#29c27f" d="M4928 3334 c-3 -3 -41 -9 -85 -13 -68 -7 -147 -32 -163 -51 -3 -3
-16 -14 -30 -23 -22 -15 -17 -23 13 -18 4 0 7 -4 7 -9 0 -5 17 -10 38 -10 30
1 34 3 20 11 -26 15 -22 26 15 46 53 28 97 41 164 49 34 3 63 10 63 15 0 10
-33 12 -42 3z"/>
<path fill="#29c27f" d="M1276 3317 c-17 -13 -14 -15 38 -21 62 -7 164 2 172 15 3 5 -5 9 -18
9 -13 0 -34 3 -47 7 -18 5 -22 3 -16 -7 6 -10 0 -12 -31 -7 -21 4 -48 9 -59
12 -11 3 -29 0 -39 -8z"/>
<path fill="#29c27f" d="M1529 3318 c12 -4 43 -10 71 -14 42 -5 50 -4 50 9 0 13 -12 16 -71
14 -44 -1 -63 -4 -50 -9z"/>
<path fill="#29c27f" d="M6345 3310 c-3 -4 1 -10 9 -13 18 -7 96 3 96 13 0 10 -99 10 -105 0z"/>
<path fill="#29c27f" d="M1675 3300 c3 -5 17 -10 31 -10 14 0 22 4 19 10 -3 6 -17 10 -31 10
-14 0 -22 -4 -19 -10z"/>
<path fill="#29c27f" d="M6468 3303 c6 -2 18 -2 25 0 6 3 1 5 -13 5 -14 0 -19 -2 -12 -5z"/>
<path fill="#29c27f" d="M6545 3300 c11 -5 31 -8 45 -8 l25 0 -25 8 c-14 4 -34 8 -45 8 l-20
1 20 -9z"/>
<path fill="#29c27f" d="M1113 3285 c4 -5 0 -17 -9 -26 -16 -17 -15 -19 11 -29 27 -10 35 -9
100 16 11 4 17 4 13 -1 -15 -16 23 -35 74 -37 l53 -2 -50 -3 c-36 -3 -45 -7
-35 -14 10 -7 -13 -8 -70 -3 -47 4 -94 7 -104 6 -11 -1 -27 3 -36 8 -10 5 -20
6 -24 3 -6 -7 -114 -17 -181 -17 -22 0 -92 6 -155 12 -63 7 -141 14 -173 17
-57 6 -172 -9 -192 -25 -5 -4 -23 -11 -39 -17 l-29 -9 44 -14 c65 -20 69 -30
12 -27 -28 1 -55 -1 -59 -6 -16 -16 16 -29 65 -26 64 5 69 -14 7 -30 -25 -6
-48 -16 -51 -22 -10 -15 33 -48 55 -42 14 4 20 0 20 -11 0 -10 7 -17 17 -15
39 3 73 -1 73 -11 0 -5 -14 -17 -31 -25 -17 -9 -29 -19 -26 -21 8 -8 138 56
133 64 -3 5 8 16 24 25 27 16 28 16 23 -2 -5 -18 -2 -19 31 -9 19 6 33 15 30
20 -7 11 19 10 50 -1 13 -6 47 -11 75 -13 28 -2 51 -5 51 -8 0 -3 12 -11 28
-17 15 -7 38 -20 52 -30 13 -10 21 -13 18 -7 -4 6 -1 11 7 11 8 0 12 -4 10 -8
-3 -4 4 -18 16 -30 18 -21 20 -22 14 -4 -4 14 4 10 29 -15 19 -19 42 -41 51
-49 9 -7 14 -19 11 -26 -3 -8 8 -18 26 -26 38 -16 49 -45 45 -124 -3 -59 -1
-68 31 -115 19 -28 49 -58 67 -67 18 -9 42 -32 54 -53 11 -21 27 -43 35 -49 8
-7 13 -18 10 -26 -3 -8 4 -16 16 -20 12 -4 25 -17 30 -30 5 -13 18 -29 30 -35
17 -9 16 -4 -9 36 -17 25 -41 60 -55 77 -30 35 -32 47 -11 47 8 0 20 -11 27
-25 8 -14 46 -58 85 -98 53 -55 71 -79 67 -94 -7 -24 16 -40 106 -76 41 -16
75 -23 93 -20 20 4 35 0 50 -15 12 -11 40 -25 62 -32 44 -14 88 -48 79 -61 -3
-5 5 -14 18 -19 13 -6 38 -19 55 -30 l33 -19 11 21 11 21 19 -24 c29 -38 25
-95 -10 -130 -35 -35 -47 -65 -32 -83 8 -10 7 -16 -3 -25 -16 -13 -11 -39 10
-56 6 -5 31 -47 54 -92 31 -60 51 -86 74 -97 68 -34 71 -40 69 -126 -2 -43 -7
-90 -13 -105 -5 -14 -10 -46 -10 -71 0 -25 -8 -61 -19 -82 -24 -48 -33 -120
-17 -130 9 -5 10 -16 4 -41 -5 -19 -13 -30 -16 -24 -5 7 -12 2 -19 -13 -9 -20
-9 -24 5 -24 15 -1 15 -2 0 -14 -23 -17 -24 -51 -2 -42 15 6 15 4 3 -10 -11
-13 -11 -18 -1 -21 6 -3 12 -11 12 -19 0 -8 5 -14 12 -14 6 0 8 -3 4 -7 -10
-11 70 -44 96 -39 13 3 32 5 43 5 15 1 12 5 -14 19 -47 23 -51 57 -11 93 33
30 39 49 15 49 -8 0 -15 7 -15 15 0 8 4 15 9 15 4 0 22 13 39 30 21 19 26 30
17 30 -8 0 -15 7 -15 15 0 9 9 15 25 15 22 0 30 9 26 33 0 4 11 7 26 7 43 0
68 10 80 29 9 15 8 23 -8 39 -24 27 -24 36 0 22 46 -24 86 -5 113 56 6 13 16
24 22 24 16 0 40 40 46 75 5 32 66 75 107 75 35 0 75 69 81 136 4 46 11 62 39
92 50 55 59 120 18 132 -11 3 -31 13 -45 22 -14 9 -45 18 -70 20 -25 2 -52 11
-62 21 -10 9 -27 17 -38 17 -25 0 -72 29 -65 40 8 14 -22 62 -52 81 -15 10
-43 19 -61 19 -22 0 -39 8 -54 25 -12 14 -28 25 -35 25 -11 0 -16 10 -15 30 0
3 -31 6 -70 6 -43 1 -73 6 -78 14 -5 8 -18 10 -39 5 -25 -5 -30 -4 -25 9 8 21
-60 -14 -84 -44 -15 -19 -21 -20 -43 -10 -20 9 -32 9 -48 1 -18 -10 -25 -8
-45 12 -21 21 -23 30 -16 61 11 49 -7 67 -60 61 -42 -4 -50 7 -31 43 4 9 11
29 15 45 6 23 3 27 -16 27 -27 0 -39 -8 -54 -34 -12 -22 -54 -37 -82 -29 -22
5 -66 78 -57 93 3 6 7 28 7 50 1 55 40 85 104 77 28 -3 47 0 54 8 12 15 60 17
77 3 7 -5 17 -7 23 -3 15 9 40 -13 40 -35 0 -10 9 -28 19 -41 18 -22 20 -23
27 -6 4 11 0 33 -10 53 -23 50 -21 59 27 93 68 49 68 49 62 89 -3 25 -2 31 3
18 8 -18 10 -17 28 12 10 18 33 38 51 44 18 7 31 14 28 16 -12 12 20 43 56 52
22 6 48 14 57 17 13 4 12 2 -3 -10 -11 -8 -17 -19 -13 -23 4 -4 13 -3 20 3 7
5 32 15 55 23 30 9 40 17 36 27 -5 13 -7 13 -15 -1 -13 -23 -43 -20 -74 9 -20
19 -23 25 -10 25 9 0 16 5 16 11 0 18 -78 4 -103 -18 -18 -15 -20 -15 -8 -1
23 31 72 48 135 48 34 1 72 7 86 15 45 26 53 16 20 -25 l-32 -40 54 0 c30 0
59 -5 66 -12 9 -9 12 -9 12 3 -1 21 -27 52 -39 45 -14 -9 -25 15 -22 49 2 24
-4 33 -27 48 -17 9 -36 17 -44 17 -7 0 -20 10 -28 21 -30 43 -80 94 -80 82 0
-7 -11 -20 -24 -28 -20 -14 -28 -14 -45 -3 -12 7 -21 20 -21 28 0 18 -55 38
-123 45 l-47 5 5 -30 c3 -16 0 -32 -6 -36 -8 -5 -4 -13 11 -24 28 -21 22 -46
-15 -60 -21 -8 -23 -13 -15 -34 6 -18 5 -28 -6 -37 -18 -15 -49 10 -58 47 -5
17 -13 24 -30 24 -14 0 -45 9 -71 20 -26 11 -60 20 -75 20 -16 0 -33 6 -37 13
-4 8 -16 16 -25 20 -42 15 28 86 108 109 19 5 36 17 39 29 5 15 13 19 28 16
59 -12 98 32 52 60 -17 11 -14 12 22 9 24 -2 45 0 48 4 3 5 18 3 34 -3 17 -6
28 -13 26 -16 -2 -4 8 -7 21 -7 14 -1 31 -8 40 -14 13 -11 12 -16 -8 -34 -12
-12 -35 -21 -50 -21 -16 0 -28 -4 -28 -10 1 -5 19 -9 40 -7 28 2 49 -3 69 -17
32 -23 119 -41 107 -23 -4 7 -14 12 -23 12 -9 0 -14 3 -10 6 3 4 19 2 36 -4
44 -15 46 8 3 34 -22 13 -30 24 -23 28 6 4 24 -1 40 -10 28 -17 31 -16 57 1
16 10 24 19 19 21 -61 13 -125 38 -115 44 7 4 8 10 3 13 -18 11 -98 37 -115
37 -10 0 -33 9 -53 20 -43 24 -97 27 -89 5 4 -8 1 -15 -5 -15 -6 0 -10 6 -8
12 1 7 -9 14 -22 16 -35 5 -71 -6 -71 -24 0 -8 -5 -12 -11 -9 -6 4 -8 13 -5
21 8 20 -48 19 -64 -2 -11 -12 -10 -18 3 -31 14 -14 29 -19 73 -22 12 -1 15
-31 3 -31 -4 0 -15 -7 -24 -16 -15 -15 -17 -15 -22 5 -6 23 -23 27 -41 9 -9
-9 -12 -8 -12 5 0 11 -8 17 -22 17 -12 0 -18 3 -15 6 4 4 -3 15 -14 25 -21 18
-21 18 18 36 l38 17 -39 4 c-46 4 -69 -3 -63 -21 2 -6 -2 -20 -10 -29 -16 -18
-10 -38 12 -38 7 0 15 -7 19 -15 3 -9 0 -15 -9 -15 -8 0 -15 -6 -15 -12 0 -9
-3 -8 -9 2 -6 8 -7 18 -5 22 7 12 -23 21 -43 14 -14 -6 -14 -8 3 -21 17 -12
11 -14 -51 -11 -38 1 -79 8 -90 15 -18 11 -16 12 15 7 22 -3 42 0 54 9 19 14
18 15 -12 21 -34 7 -71 49 -49 57 6 3 1 6 -13 6 -34 1 -55 -13 -44 -30 6 -11
4 -11 -10 0 -10 9 -43 16 -76 17 -32 1 -67 7 -77 12 -22 12 -181 27 -170 17z
m922 -35 c-3 -5 -12 -10 -18 -10 -7 0 -6 4 3 10 19 12 23 12 15 0z m-565 -70
c0 -5 -10 -10 -21 -10 -19 0 -20 -2 -8 -17 12 -14 12 -16 0 -8 -8 5 -44 8 -80
7 -36 0 -60 2 -52 5 11 4 11 7 0 13 -7 5 14 6 47 3 32 -2 70 0 84 5 14 6 26
11 28 11 1 1 2 -3 2 -9z m-325 -410 c11 -17 -5 -11 -28 11 l-22 21 22 -11 c12
-6 25 -16 28 -21z m1035 -781 c0 -5 -4 -9 -10 -9 -5 0 -10 7 -10 16 0 8 5 12
10 9 6 -3 10 -10 10 -16z m410 -193 c0 -3 -4 -8 -10 -11 -5 -3 -10 -1 -10 4 0
6 5 11 10 11 6 0 10 -2 10 -4z m-390 -1077 c0 -6 -4 -7 -10 -4 -5 3 -10 11
-10 16 0 6 5 7 10 4 6 -3 10 -11 10 -16z"/>
<path fill="#29c27f" d="M1592 3273 c-6 -2 -9 -9 -6 -15 4 -6 -2 -8 -17 -3 -36 11 -14 -7 25
-20 19 -7 42 -8 55 -4 19 8 20 11 9 29 -12 19 -38 24 -66 13z"/>
<path fill="#29c27f" d="M6425 3270 c3 -5 16 -10 28 -10 18 0 19 2 7 10 -20 13 -43 13 -35 0z"/>
<path fill="#29c27f" d="M7 3223 c7 -2 19 -2 26 0 6 3 1 5 -13 5 -14 0 -19 -2 -13 -5z"/>
<path fill="#29c27f" d="M4570 3180 c0 -5 4 -10 9 -10 6 0 13 5 16 10 3 6 -1 10 -9 10 -9 0
-16 -4 -16 -10z"/>
<path fill="#29c27f" d="M1 3137 c0 -23 3 -37 5 -30 6 13 62 7 79 -8 12 -12 52 -11 60 1 3 6
15 10 26 10 10 0 19 4 19 10 0 13 -46 24 -67 16 -9 -4 -19 -2 -23 4 -3 5 -27
16 -53 24 l-47 14 1 -41z"/>
<path fill="#29c27f" d="M2060 3150 c0 -5 6 -10 14 -10 8 0 18 5 21 10 3 6 -3 10 -14 10 -12
0 -21 -4 -21 -10z"/>
<path fill="#29c27f" d="M3140 3120 c-9 -6 -10 -10 -3 -10 6 0 14 -8 17 -18 8 -25 91 -29 143
-7 l38 16 -25 13 c-18 10 -41 11 -80 6 -30 -4 -60 -4 -65 1 -6 4 -17 4 -25 -1z"/>
<path fill="#29c27f" d="M1873 3091 c-10 -16 -9 -20 9 -24 12 -3 28 -2 37 3 9 4 30 6 46 4
l30 -5 -30 14 c-56 26 -80 28 -92 8z"/>
<path fill="#29c27f" d="M1925 3050 c-3 -5 1 -10 9 -10 8 0 18 5 21 10 3 6 -1 10 -9 10 -8 0
-18 -4 -21 -10z"/>
<path fill="#29c27f" d="M4045 2970 c-3 -5 -1 -10 4 -10 6 0 11 5 11 10 0 6 -2 10 -4 10 -3 0
-8 -4 -11 -10z"/>
<path fill="#29c27f" d="M526 2954 c-17 -12 -17 -14 -4 -14 9 0 20 5 23 11 11 17 2 18 -19 3z"/>
<path fill="#29c27f" d="M3487 2956 c-15 -12 -15 -15 -2 -26 8 -7 15 -19 15 -26 0 -8 6 -14
14 -14 24 0 26 -16 5 -38 -18 -20 -18 -22 -2 -22 15 0 15 -2 -3 -15 -17 -13
-14 -14 36 -8 32 3 60 12 68 21 14 19 16 32 2 32 -5 0 -25 15 -43 34 -25 25
-32 37 -24 45 8 8 4 11 -13 11 -20 0 -22 2 -10 10 12 8 12 10 -5 10 -11 -1
-28 -7 -38 -14z"/>
<path fill="#29c27f" d="M355 2910 c-3 -6 1 -7 9 -4 18 7 21 14 7 14 -6 0 -13 -4 -16 -10z"/>
<path fill="#29c27f" d="M3430 2891 c0 -6 -6 -11 -14 -11 -8 0 -13 -11 -13 -26 0 -24 2 -25
30 -20 37 7 44 14 49 41 2 15 -3 21 -24 23 -16 2 -28 -1 -28 -7z"/>
<path fill="#29c27f" d="M940 2876 c0 -2 7 -9 15 -16 13 -11 14 -10 9 4 -5 14 -24 23 -24 12z"/>
<path fill="#29c27f" d="M2338 2783 c7 -3 16 -2 19 1 4 3 -2 6 -13 5 -11 0 -14 -3 -6 -6z"/>
<path fill="#29c27f" d="M6430 2685 c0 -13 -7 -25 -15 -29 -17 -6 -20 -26 -4 -26 5 0 7 5 3
11 -5 8 1 10 21 7 15 -3 38 0 52 7 l24 13 -41 20 -40 19 0 -22z"/>
<path fill="#29c27f" d="M3770 2640 c0 -5 5 -10 10 -10 6 0 10 5 10 10 0 6 -4 10 -10 10 -5 0
-10 -4 -10 -10z"/>
<path fill="#29c27f" d="M3770 2600 c0 -11 5 -20 10 -20 6 0 10 9 10 20 0 11 -4 20 -10 20 -5
0 -10 -9 -10 -20z"/>
<path fill="#29c27f" d="M6400 2596 c0 -25 -45 -70 -60 -61 -4 3 -10 -2 -14 -10 -3 -9 -18
-15 -37 -15 -17 0 -43 -9 -58 -20 -25 -17 -30 -34 -22 -70 1 -3 8 4 16 14 11
14 12 23 4 33 -9 10 -8 13 5 13 9 0 16 -7 16 -15 0 -12 3 -13 19 -3 11 7 17
16 15 20 -3 4 -1 8 5 8 5 0 13 -5 17 -12 5 -8 10 -7 18 3 6 8 22 15 36 17 14
1 30 3 37 4 7 1 15 15 19 32 3 17 10 36 15 42 12 15 1 44 -17 44 -8 0 -14 -10
-14 -24z"/>
<path fill="#29c27f" d="M3851 2556 c2 -2 14 -8 26 -14 17 -9 22 -9 27 3 4 11 -2 15 -26 15
-17 0 -29 -2 -27 -4z"/>
<path fill="#29c27f" d="M4078 2503 c7 -3 16 -2 19 1 4 3 -2 6 -13 5 -11 0 -14 -3 -6 -6z"/>
<path fill="#29c27f" d="M4260 2500 c-9 -6 -10 -10 -3 -10 6 0 15 5 18 10 8 12 4 12 -15 0z"/>
<path fill="#29c27f" d="M6009 2279 c-7 -14 -7 -25 -1 -31 6 -6 13 1 20 21 12 35 -1 42 -19
10z"/>
<path fill="#29c27f" d="M1922 2251 c-9 -5 1 -8 26 -8 23 0 59 -10 82 -22 22 -11 51 -21 63
-20 33 0 -92 58 -128 58 -16 0 -36 -3 -43 -8z"/>
<path fill="#29c27f" d="M480 2190 c0 -5 5 -10 10 -10 6 0 10 5 10 10 0 6 -4 10 -10 10 -5 0
-10 -4 -10 -10z"/>
<path fill="#29c27f" d="M2144 2184 c3 -7 -4 -15 -17 -17 -12 -3 6 -4 41 -4 63 2 79 10 41 22
-41 13 -70 13 -65 -1z"/>
<path fill="#29c27f" d="M2045 2160 c3 -5 8 -10 11 -10 2 0 4 5 4 10 0 6 -5 10 -11 10 -5 0
-7 -4 -4 -10z"/>
<path fill="#29c27f" d="M6007 2133 c-4 -23 -2 -40 5 -44 6 -4 8 -11 5 -16 -3 -5 -2 -15 2
-21 5 -8 8 2 9 24 1 20 7 43 13 50 9 11 8 18 -1 29 -19 23 -27 18 -33 -22z"/>
<path fill="#29c27f" d="M6041 2077 c2 -1 12 -9 22 -16 15 -12 17 -12 11 3 -3 9 -13 16 -22
16 -8 0 -13 -1 -11 -3z"/>
<path fill="#29c27f" d="M6093 2030 c-1 -11 2 -18 8 -15 11 7 12 35 1 35 -4 0 -8 -9 -9 -20z"/>
<path fill="#29c27f" d="M6040 2020 c0 -5 5 -10 11 -10 5 0 8 -4 4 -9 -3 -5 -1 -12 5 -16 5
-3 10 -1 10 5 0 6 6 8 13 4 6 -4 3 2 -7 14 -20 23 -36 28 -36 12z"/>
<path fill="#29c27f" d="M5199 1974 c-8 -30 1 -55 19 -52 23 5 25 22 4 48 -18 22 -19 22 -23
4z"/>
<path fill="#29c27f" d="M6107 1983 c-4 -6 -20 -13 -37 -16 -16 -4 -30 -11 -30 -16 0 -5 9 -7
20 -4 13 4 20 0 20 -10 0 -8 7 -17 15 -21 9 -3 15 0 15 8 0 8 6 16 12 18 9 3
10 11 2 28 -6 14 -13 19 -17 13z"/>
<path fill="#29c27f" d="M5875 1880 c-33 -27 -68 -49 -77 -50 -21 0 -22 -12 -6 -57 7 -18 19
-34 28 -34 21 -2 49 -7 84 -15 18 -4 27 -3 23 3 -3 5 4 30 17 54 17 34 20 51
13 67 -7 15 -5 25 7 38 16 15 16 17 -1 30 -10 7 -20 13 -23 13 -3 0 -32 -22
-65 -49z"/>
<path fill="#29c27f" d="M5538 1868 c23 -24 42 -49 42 -56 0 -7 4 -12 8 -12 5 0 16 -15 25
-34 17 -37 81 -91 95 -82 13 8 20 63 10 78 -6 10 -8 10 -8 -1 0 -11 -6 -9 -20
7 -11 12 -20 26 -20 31 0 6 -18 22 -40 36 -23 14 -49 34 -59 44 -10 10 -31 21
-47 25 -29 7 -28 7 14 -36z"/>
<path fill="#29c27f" d="M6150 1813 c0 -21 3 -24 9 -14 5 8 7 20 4 28 -8 21 -13 15 -13 -14z"/>
<path fill="#29c27f" d="M6055 1822 c-56 -5 -64 -17 -9 -15 25 0 48 4 51 7 10 10 1 11 -42 8z"/>
<path fill="#29c27f" d="M5987 1769 c-7 -27 2 -79 14 -79 5 0 9 12 9 28 1 27 1 27 13 5 8 -14
17 -19 25 -14 9 6 9 11 -2 27 -11 15 -12 22 -3 33 10 12 9 13 -7 8 -10 -4 -24
-3 -31 3 -9 8 -14 5 -18 -11z"/>
<path fill="#29c27f" d="M6232 1783 c-10 -4 -8 -8 5 -18 10 -7 18 -19 18 -26 0 -7 7 -13 15
-15 33 -5 89 -35 99 -51 7 -12 5 -21 -7 -31 -15 -12 -14 -13 9 -8 17 4 31 0
39 -9 16 -19 49 -19 56 0 9 23 48 18 74 -10 13 -14 33 -25 44 -25 18 0 16 4
-12 33 -18 18 -30 36 -26 40 13 13 -54 57 -122 80 -69 24 -71 24 -95 7 -27
-21 -37 -18 -49 16 -9 23 -22 28 -48 17z"/>
<path fill="#29c27f" d="M6125 1730 c3 -5 8 -10 11 -10 2 0 4 5 4 10 0 6 -5 10 -11 10 -5 0
-7 -4 -4 -10z"/>
<path fill="#29c27f" d="M6173 1733 c9 -2 23 -2 30 0 6 3 -1 5 -18 5 -16 0 -22 -2 -12 -5z"/>
<path fill="#29c27f" d="M6634 1705 c-10 -8 -30 -15 -44 -15 -22 -1 -23 -2 -8 -11 19 -11 46
-1 68 25 16 20 10 20 -16 1z"/>
<path fill="#29c27f" d="M5716 1672 c-9 -15 39 -31 111 -36 38 -3 60 -3 50 0 -9 3 -15 10 -12
15 4 5 -4 9 -17 10 -43 1 -83 7 -104 14 -12 4 -24 3 -28 -3z"/>
<path fill="#29c27f" d="M5933 1623 c9 -2 25 -2 35 0 9 3 1 5 -18 5 -19 0 -27 -2 -17 -5z"/>
<path fill="#29c27f" d="M6008 1623 c6 -2 18 -2 25 0 6 3 1 5 -13 5 -14 0 -19 -2 -12 -5z"/>
<path fill="#29c27f" d="M6093 1618 c-13 -6 -23 -15 -23 -20 0 -12 6 -10 42 12 34 21 20 27
-19 8z"/>
<path fill="#29c27f" d="M5980 1606 c0 -2 7 -6 15 -10 8 -3 15 -1 15 4 0 6 -7 10 -15 10 -8 0
-15 -2 -15 -4z"/>
<path fill="#29c27f" d="M6436 1549 c-3 -17 -6 -41 -6 -53 0 -12 -6 -30 -13 -39 -11 -16 -16
-15 -60 13 -43 27 -47 32 -36 51 8 15 8 24 0 32 -6 6 -11 8 -11 5 0 -4 -13 -3
-30 2 -18 5 -30 5 -30 -1 0 -5 -9 -9 -20 -9 -12 0 -25 -10 -32 -25 -13 -28
-20 -30 -48 -13 -18 11 -24 9 -51 -20 -16 -17 -34 -32 -39 -32 -5 0 -15 -12
-22 -26 -9 -19 -28 -31 -68 -44 -94 -29 -102 -36 -96 -98 3 -30 11 -61 17 -69
7 -8 13 -37 13 -64 1 -44 4 -51 24 -56 13 -3 35 0 48 6 14 6 43 11 64 11 22 0
40 4 40 9 0 5 31 16 69 26 61 15 72 15 104 1 20 -8 42 -24 49 -35 l12 -20 24
22 24 22 -7 -25 c-4 -14 -4 -22 0 -18 8 8 45 -34 45 -51 0 -14 72 -33 83 -22
6 6 17 5 28 -2 14 -9 21 -9 31 1 6 6 20 12 30 12 11 0 25 17 39 50 12 28 25
50 30 50 14 0 30 78 23 115 -3 19 -23 52 -45 76 -21 23 -39 46 -39 51 0 5 -11
14 -26 20 -18 8 -29 25 -37 56 -7 27 -19 47 -29 50 -9 2 -19 18 -23 38 -7 42
-21 44 -29 3z"/>
<path fill="#29c27f" d="M6208 1563 c7 -3 16 -2 19 1 4 3 -2 6 -13 5 -11 0 -14 -3 -6 -6z"/>
<path fill="#29c27f" d="M4561 1520 c-13 -17 -35 -36 -50 -43 -22 -10 -26 -19 -26 -53 0 -23
-5 -47 -11 -55 -26 -34 19 -95 54 -73 19 12 74 161 67 182 -3 7 0 10 6 7 6 -4
7 3 3 22 -10 43 -17 45 -43 13z"/>
<path fill="#29c27f" d="M7150 1440 c0 -5 5 -10 10 -10 6 0 10 5 10 10 0 6 -4 10 -10 10 -5 0
-10 -4 -10 -10z"/>
<path fill="#29c27f" d="M6894 1381 c7 -11 46 -35 46 -28 0 3 -12 12 -26 22 -15 9 -23 12 -20
6z"/>
<path fill="#29c27f" d="M7082 1070 c15 -21 19 -33 11 -41 -11 -11 4 -59 18 -59 7 0 59 65 59
73 0 3 -9 3 -20 0 -15 -4 -29 4 -49 26 -35 40 -49 40 -19 1z"/>
<path fill="#29c27f" d="M6507 954 c18 -28 26 -30 47 -8 25 25 19 33 -23 32 -40 0 -40 0 -24
-24z"/>
<path fill="#29c27f" d="M7032 959 c-7 -10 -30 -28 -52 -39 -45 -23 -54 -50 -16 -50 35 0 56
10 56 26 0 8 8 18 18 21 19 8 41 33 42 48 0 19 -36 14 -48 -6z"/>
<path fill="#29c27f" d="M2116 945 c-3 -8 -1 -15 4 -15 6 0 10 7 10 15 0 8 -2 15 -4 15 -2 0
-6 -7 -10 -15z"/>
<path fill="#29c27f" d="M2390 765 c0 -8 29 -12 39 -5 9 5 4 8 -13 8 -14 0 -26 -2 -26 -3z"/>
<path fill="#29c27f" d="M2385 515 c-22 -8 -46 -13 -52 -10 -7 2 -13 -2 -13 -9 0 -8 -11 -17
-25 -20 -14 -4 -25 -11 -25 -17 0 -6 -4 -8 -9 -5 -4 3 -6 -6 -3 -19 3 -18 0
-25 -11 -25 -14 0 -14 -3 -2 -27 8 -15 11 -31 7 -35 -12 -12 -137 -27 -140
-17 -2 5 -10 9 -18 9 -9 0 -12 -5 -9 -11 5 -7 -5 -8 -32 -3 -21 4 -47 7 -58 5
-18 -2 -102 -1 -180 3 -16 0 -33 6 -37 11 -5 6 -8 5 -8 -4 0 -11 -22 -12 -117
-8 -67 3 -103 2 -83 -2 21 -5 27 -9 15 -10 -16 -2 -14 -4 10 -15 27 -12 17
-13 -93 -14 -84 -1 -121 2 -117 9 5 7 -5 8 -30 3 -30 -5 -36 -4 -30 6 6 10 2
11 -16 6 -13 -4 -109 -9 -214 -12 -104 -2 -217 -6 -250 -10 -33 -3 -67 -5 -75
-5 -51 0 -91 -12 -86 -25 4 -10 -4 -14 -32 -16 -36 -1 -113 2 -180 7 -18 1
-35 -1 -37 -6 -9 -14 82 -36 160 -38 21 -1 26 -4 16 -10 -11 -7 -11 -9 0 -14
8 -3 -20 -6 -61 -7 -56 -1 -69 -4 -53 -10 60 -24 -2 -39 -171 -41 l-101 -2 70
-8 c121 -16 96 -19 -103 -12 l-192 6 0 -57 0 -56 3600 0 3600 0 0 54 c0 52 -1
54 -31 60 -17 3 -48 6 -68 6 -50 0 -218 28 -256 43 -49 19 -59 34 -33 48 13 7
35 12 51 10 32 -3 36 14 6 29 -39 21 -20 51 45 71 32 10 61 17 65 15 4 -3 12
3 18 13 10 15 5 19 -46 28 -31 6 -69 10 -86 9 -16 -1 -39 3 -50 9 -24 14 -92
25 -193 31 -41 2 -82 9 -92 14 -10 6 -26 7 -36 3 -11 -4 -15 -3 -11 4 5 8 -28
14 -101 19 -59 5 -114 8 -122 6 -19 -2 -200 -12 -298 -16 -40 -1 -67 1 -61 5
8 4 -2 10 -26 15 -24 4 -45 2 -57 -5 -18 -11 -90 -6 -191 14 -9 2 -15 -1 -11
-6 3 -5 -1 -9 -8 -9 -90 -2 -286 -11 -298 -13 -8 -2 -37 -7 -65 -12 -27 -4
-67 -16 -90 -26 -22 -10 -52 -19 -66 -19 -14 0 -40 -11 -59 -25 -19 -14 -42
-25 -51 -25 -10 0 -19 -6 -22 -12 -2 -7 -8 -10 -12 -5 -5 4 2 18 15 32 22 23
22 25 4 26 -17 0 -16 1 4 9 12 5 22 16 22 24 0 11 -24 16 -107 21 -60 4 -123
14 -142 21 -44 18 -106 18 -124 -1 -8 -8 -17 -11 -21 -8 -3 3 -12 0 -20 -6 -8
-7 -19 -10 -24 -7 -15 9 -124 -14 -151 -31 -23 -15 -59 -14 -125 3 -20 5 -27
4 -22 -4 11 -19 -41 -26 -169 -25 -66 0 -147 1 -180 1 -33 1 -96 -1 -140 -3
-44 -2 -133 -6 -198 -9 -65 -2 -121 -7 -124 -10 -3 -3 -14 -1 -24 4 -11 6 -26
6 -41 1 -14 -6 -17 -10 -8 -11 26 -2 -22 -19 -57 -19 -36 -1 -53 -17 -26 -24
10 -3 5 -5 -12 -6 -17 0 -36 -6 -41 -11 -6 -6 -55 -14 -110 -20 -111 -10 -221
-33 -237 -49 -8 -8 -7 -11 4 -13 7 0 19 -2 24 -3 6 -2 34 -3 63 -4 91 -2 48
-18 -70 -26 -61 -4 -123 -12 -137 -17 -14 -6 -80 -11 -146 -12 -66 -1 -146 -8
-178 -16 -44 -10 -63 -11 -82 -2 -14 7 -40 12 -58 12 -21 0 -28 3 -19 9 16 10
-55 21 -134 21 -58 0 -87 8 -78 21 3 5 -19 9 -48 10 -29 1 -64 5 -78 9 -16 5
-2 7 40 4 47 -3 58 -1 40 5 -19 7 -11 9 37 8 34 -1 65 2 69 6 4 4 -9 7 -29 7
-20 0 -39 5 -43 11 -5 8 8 9 45 4 51 -7 156 7 216 28 34 12 83 47 66 47 -6 0
-11 7 -11 16 0 19 -50 69 -69 69 -27 0 -23 25 6 38 15 6 40 20 56 31 15 10 38
19 52 19 14 0 25 3 25 8 0 12 -18 11 -65 -6z m-1928 -421 c-3 -3 -12 -4 -19
-1 -8 3 -5 6 6 6 11 1 17 -2 13 -5z"/>
<path fill="#29c27f" d="M2160 412 c0 -4 5 -13 11 -19 8 -8 0 -14 -32 -21 l-44 -10 42 -1 c23
-1 44 -5 47 -10 10 -15 46 0 46 19 0 9 -8 24 -18 33 -19 18 -52 23 -52 9z"/>
<path fill="#29c27f" d="M1588 353 c17 -2 47 -2 65 0 17 2 3 4 -33 4 -36 0 -50 -2 -32 -4z"/>
<path fill="#29c27f" d="M2158 343 c7 -3 16 -2 19 1 4 3 -2 6 -13 5 -11 0 -14 -3 -6 -6z"/>
<path fill="#29c27f" d="M1075 320 c11 -5 27 -9 35 -9 9 0 8 4 -5 9 -11 5 -27 9 -35 9 -9 0
-8 -4 5 -9z"/>
<path fill="#29c27f" d="M1148 313 c6 -2 18 -2 25 0 6 3 1 5 -13 5 -14 0 -19 -2 -12 -5z"/>
<path fill="#29c27f" d="M6938 243 c6 -2 18 -2 25 0 6 3 1 5 -13 5 -14 0 -19 -2 -12 -5z"/>
<path fill="#29c27f" d="M2598 220 c-7 -11 -22 -20 -33 -20 -11 0 -27 -5 -35 -11 -11 -7 16
-8 90 -3 58 3 108 8 112 11 4 2 2 13 -5 23 -17 29 -111 29 -129 0z"/>
<path fill="#29c27f" d="M2198 223 c-16 -2 -28 -9 -28 -14 0 -13 12 -11 51 6 34 14 29 16 -23
8z"/>
<path fill="#29c27f" d="M335 210 c11 -5 34 -9 50 -9 26 0 27 2 10 9 -11 5 -33 9 -50 9 -26 0
-27 -2 -10 -9z"/>
<path fill="#29c27f" d="M2265 200 c3 -5 8 -10 11 -10 2 0 4 5 4 10 0 6 -5 10 -11 10 -5 0 -7
-4 -4 -10z"/>
<path fill="#29c27f" d="M2355 190 c-17 -7 -15 -9 12 -9 17 -1 35 4 38 9 7 12 -22 12 -50 0z"/>
<path fill="#29c27f" d="M2308 183 c7 -3 16 -2 19 1 4 3 -2 6 -13 5 -11 0 -14 -3 -6 -6z"/>
<path fill="#29c27f" d="M173 133 c9 -2 25 -2 35 0 9 3 1 5 -18 5 -19 0 -27 -2 -17 -5z"/>
</g>
</svg>
